<?xml version="1.0" encoding="utf-8"?>
<!-- Generator: Adobe Illustrator 15.0.0, SVG Export Plug-In . SVG Version: 6.00 Build 0)  -->
<!DOCTYPE svg PUBLIC "-//W3C//DTD SVG 1.1//EN" "http://www.w3.org/Graphics/SVG/1.1/DTD/svg11.dtd">
<svg version="1.1" id="Шар_1" xmlns="http://www.w3.org/2000/svg" xmlns:xlink="http://www.w3.org/1999/xlink" x="0px" y="0px"
	 width="32px" height="32px" viewBox="0 0 32 32" enable-background="new 0 0 32 32" xml:space="preserve">
<g>
	<path fill="#4DAE51" d="M16,0C7.185,0,0.01,7.146,0.01,16c0,8.821,7.141,16,15.99,16s15.99-7.146,15.99-16
		C31.99,7.146,24.816,0,16,0z M16,29.4C8.621,29.4,2.607,23.419,2.607,16C2.607,8.615,8.586,2.599,16,2.599
		c7.38,0,13.395,5.982,13.395,13.401C29.395,23.385,23.38,29.4,16,29.4z M16,6.53c-1.229,0-2.254,1.026-2.254,2.256
		c0,1.231,1.025,2.257,2.254,2.257c1.23,0,2.255-1.025,2.255-2.257C18.255,7.556,17.23,6.53,16,6.53z M16,11.761
		c-1.229,0-2.221,0.992-2.221,2.222v9.196c0,1.231,0.99,2.257,2.221,2.257s2.255-0.992,2.255-2.257v-9.163
		C18.255,12.786,17.23,11.761,16,11.761z"/>
</g>
</svg>
