<?xml version="1.0" encoding="utf-8"?>
<!-- Generator: Adobe Illustrator 15.0.0, SVG Export Plug-In . SVG Version: 6.00 Build 0)  -->
<!DOCTYPE svg PUBLIC "-//W3C//DTD SVG 1.1//EN" "http://www.w3.org/Graphics/SVG/1.1/DTD/svg11.dtd">
<svg version="1.1" id="_x31__1_" xmlns="http://www.w3.org/2000/svg" xmlns:xlink="http://www.w3.org/1999/xlink" x="0px" y="0px"
	 width="512px" height="512px" viewBox="0 0 512 512" enable-background="new 0 0 512 512" xml:space="preserve">
<g id="Фігура_1">
	<g>
		<path fill="#4EB051" d="M256.004,80.146c-96.964,0-175.864,78.897-175.864,175.845c0,96.979,78.9,175.864,175.864,175.864
			S431.86,352.975,431.86,255.99C431.86,159.043,352.968,80.146,256.004,80.146z"/>
	</g>
</g>
<g id="Фігура_3">
	<g>
		<path fill="#4EB051" d="M194.294,315.17l-88.332,6.339c-1.4,0-2.536,1.136-2.536,2.536L80.182,429.282
			c0,1.399,1.135,2.536,2.536,2.536l105.237-23.245c1.399,0,2.536-1.136,2.536-2.536l6.34-88.332
			C196.831,316.305,195.695,315.17,194.294,315.17z"/>
	</g>
</g>
<g id="Фігура_1_копія_2">
	<g>
		<path fill="#FFFFFF" d="M299.455,237.665l-30.313-3.467L256.2,206.584c-0.21-0.449-0.646-0.724-1.146-0.719
			c-0.351,0.024-0.912,0.268-1.122,0.72l-12.683,27.762l-30.285,3.775c-0.471,0.062-0.894,0.402-1.039,0.868
			c-0.127,0.449,0.004,0.955,0.359,1.297l22.5,20.625l-5.797,29.979c-0.083,0.443,0.106,0.963,0.521,1.242
			c0.41,0.287,0.893,0.313,1.355,0.057l26.548-14.996l26.709,14.738c0.211,0.111,0.416,0.17,0.656,0.161
			c0.014-0.001,0.041-0.002,0.059-0.002c0.691-0.024,1.219-0.608,1.194-1.302c-0.007-0.199-0.043-0.414-0.135-0.578l-5.993-29.533
			l22.276-20.854c0.352-0.331,0.484-0.838,0.317-1.309C300.354,238.059,299.933,237.734,299.455,237.665z M192.906,239.175
			l-30.177-4.504l-11.987-28.041c-0.195-0.457-0.62-0.746-1.121-0.759c-0.352,0.013-0.921,0.236-1.146,0.682l-13.626,27.311
			l-30.396,2.735c-0.474,0.045-0.906,0.371-1.069,0.832c-0.143,0.444-0.029,0.954,0.314,1.309l21.78,21.384l-6.819,29.763
			c-0.099,0.439,0.072,0.965,0.477,1.26c0.399,0.301,0.881,0.343,1.354,0.102l27.047-14.076l26.187,15.646
			c0.208,0.117,0.411,0.184,0.652,0.184h0.057c0.693,0,1.239-0.566,1.239-1.26c0-0.199-0.029-0.415-0.114-0.583l-4.978-29.722
			l22.978-20.079c0.363-0.318,0.514-0.82,0.363-1.297C193.791,239.6,193.38,239.261,192.906,239.175z M413.221,237.649
			c-0.736-2.297-2.736-3.996-5.187-4.342l-27.507-3.525l-11.42-25.289c-0.992-2.169-3.197-3.607-5.832-3.64
			c-2.354,0.049-4.496,1.413-5.501,3.582l-11.885,25.058l-27.495,3.047c-2.421,0.25-4.491,1.906-5.298,4.296
			c-0.725,2.298-0.103,4.76,1.678,6.464l20.16,19.032l-5.601,27.117c-0.514,2.425,0.432,4.92,2.371,6.3
			c1.113,0.829,2.479,1.263,3.861,1.233l1.803-0.188l25.391-13.873l24.162,13.759l1.806,0.808l1.406-0.029
			c3.416-0.069,6.187-2.944,6.114-6.384l-5.305-28.271l20.429-18.62C413.229,242.559,413.941,239.983,413.221,237.649z
			 M380.091,259.159l4.652,24.774l-21.893-12.476l-22.099,12.089l5.096-24.682l-18.318-17.279l25.047-2.788l10.777-22.771
			l10.357,22.95l25.006,3.23L380.091,259.159z"/>
	</g>
</g>
</svg>
