<?xml version="1.0" encoding="utf-8"?>
<!-- Generator: Adobe Illustrator 15.0.0, SVG Export Plug-In . SVG Version: 6.00 Build 0)  -->
<!DOCTYPE svg PUBLIC "-//W3C//DTD SVG 1.1//EN" "http://www.w3.org/Graphics/SVG/1.1/DTD/svg11.dtd">
<svg version="1.1" id="Шар_1" xmlns="http://www.w3.org/2000/svg" xmlns:xlink="http://www.w3.org/1999/xlink" x="0px" y="0px"
	 width="32px" height="32px" viewBox="0 0 32 32" enable-background="new 0 0 32 32" xml:space="preserve">
<g>
	<path fill="#EAEAEA" d="M16,0c-0.002,0-0.005,0-0.007,0c0,0-0.002,0-0.002,0c-0.001,0-0.003,0-0.005,0c-0.001,0-0.001,0-0.002,0
		c-0.001,0-0.004,0-0.005,0c0,0-0.001,0-0.002,0c-0.002,0-0.005,0-0.007,0c0,0-0.001,0-0.002,0c-0.002,0-0.004,0-0.006,0
		c0,0-0.002,0-0.002,0c-0.001,0-0.003,0-0.005,0c-0.001,0-0.001,0-0.003,0s-0.003,0-0.005,0c-0.001,0-0.001,0-0.002,0
		c-0.002,0-0.005,0-0.007,0c0,0-0.001,0-0.001,0c-0.002,0-0.004,0-0.006,0c-0.001,0-0.001,0-0.002,0c-0.002,0-0.003,0-0.005,0
		c0,0-0.001,0-0.002,0c-0.002,0-0.004,0-0.006,0c-0.001,0-0.001,0-0.001,0c-0.002,0-0.005,0-0.007,0c-0.001,0-0.001,0-0.001,0
		c-0.002,0-0.004,0-0.006,0c0,0-0.001,0-0.002,0c-0.002,0-0.004,0-0.005,0c-0.001,0-0.002,0-0.002,0c-0.002,0-0.004,0-0.006,0
		c0,0-0.001,0-0.002,0c-0.002,0-0.005,0-0.007,0c-0.001,0-0.001,0-0.002,0c-0.002,0-0.003,0-0.005,0c0,0-0.002,0-0.002,0
		c-0.001,0-0.003,0-0.005,0c0,0-0.002,0-0.002,0c-0.002,0-0.004,0-0.006,0c-0.001,0-0.001,0-0.001,0c-0.002,0-0.005,0-0.007,0
		c-0.001,0-0.001,0-0.002,0c-0.002,0-0.003,0-0.005,0c-0.001,0-0.001,0-0.002,0c-0.001,0-0.003,0-0.005,0c0,0-0.002,0-0.002,0
		c-0.002,0-0.005,0-0.007,0l0,0c-0.002,0-0.005,0-0.008,0c-0.001,0-0.001,0-0.002,0c-0.002,0-0.004,0-0.005,0c0,0-0.001,0-0.002,0
		c-0.002,0-0.004,0-0.006,0c0,0-0.001,0-0.002,0c-0.005,0-0.01,0-0.015,0c-0.001,0-0.001,0-0.002,0c-0.001,0-0.003,0-0.005,0
		c-0.001,0-0.002,0-0.003,0c-0.001,0-0.003,0-0.004,0s-0.002,0-0.003,0c-0.002,0-0.004,0-0.006,0c-0.001,0-0.001,0-0.002,0
		c-0.002,0-0.003,0-0.006,0c-0.001,0-0.002,0-0.003,0c-0.001,0-0.003,0-0.004,0c-0.001,0-0.002,0-0.003,0c-0.001,0-0.003,0-0.004,0
		c-0.001,0-0.002,0-0.003,0c-0.002,0-0.004,0-0.007,0c0,0-0.001,0-0.002,0c-0.001,0-0.003,0-0.005,0c-0.001,0-0.002,0-0.003,0
		c-0.001,0-0.003,0-0.005,0c-0.001,0-0.001,0-0.002,0c-0.002,0-0.003,0-0.005,0c-0.001,0-0.001,0-0.002,0c-0.002,0-0.005,0-0.007,0
		c0,0-0.001,0-0.002,0c-0.002,0-0.003,0-0.005,0c-0.001,0-0.002,0-0.003,0c-0.001,0-0.002,0-0.004,0c-0.001,0-0.001,0-0.003,0
		s-0.003,0-0.005,0c-0.001,0-0.001,0-0.002,0c-0.002,0-0.005,0-0.007,0c0,0,0,0-0.001,0c-0.002,0-0.004,0-0.006,0
		c0,0-0.002,0-0.002,0c-0.002,0-0.003,0-0.005,0c0,0-0.002,0-0.002,0c-0.001,0-0.003,0-0.005,0c0,0-0.001,0-0.002,0
		c-0.002,0-0.005,0-0.007,0c-0.001,0-0.001,0-0.002,0c-0.002,0-0.003,0-0.005,0c-0.001,0-0.001,0-0.003,0s-0.003,0-0.004,0
		c-0.001,0-0.002,0-0.003,0c-0.002,0-0.004,0-0.006,0c0,0-0.001,0-0.001,0c-0.002,0-0.005,0-0.007,0c0,0-0.001,0-0.002,0
		c-0.001,0-0.003,0-0.005,0c-0.001,0-0.002,0-0.003,0c-0.001,0-0.003,0-0.005,0c0,0-0.002,0-0.002,0c-0.002,0-0.004,0-0.006,0
		c0,0-0.001,0-0.001,0c-0.002,0-0.005,0-0.007,0c-0.001,0-0.001,0-0.003,0s-0.002,0-0.004,0s-0.003,0-0.004,0
		c-0.001,0-0.003,0-0.004,0s-0.002,0-0.003,0c-0.002,0-0.004,0-0.006,0c0,0-0.001,0-0.002,0c-0.002,0-0.004,0-0.007,0
		c0,0-0.002,0-0.002,0c-0.001,0-0.003,0-0.005,0c-0.001,0-0.002,0-0.003,0c-0.002,0-0.003,0-0.005,0c0,0-0.002,0-0.002,0
		c-0.002,0-0.004,0-0.007,0c0,0-0.001,0-0.001,0c-0.002,0-0.004,0-0.006,0c0,0-0.002,0-0.002,0c-0.002,0-0.003,0-0.005,0
		c-0.001,0-0.002,0-0.003,0s-0.003,0-0.004,0c-0.001,0-0.001,0-0.002,0c-0.002,0-0.004,0-0.007,0c0,0-0.002,0-0.002,0
		c-0.002,0-0.003,0-0.005,0c-0.001,0-0.002,0-0.003,0c-0.001,0-0.003,0-0.004,0c-0.001,0-0.003,0-0.004,0c-0.001,0-0.003,0-0.004,0
		c-0.001,0-0.001,0-0.002,0c-0.002,0-0.005,0-0.007,0c0,0-0.001,0-0.002,0c-0.002,0-0.003,0-0.005,0c-0.001,0-0.002,0-0.003,0
		c-0.001,0-0.003,0-0.004,0c-0.001,0-0.003,0-0.004,0c-0.001,0-0.003,0-0.004,0c-0.001,0-0.001,0-0.002,0c-0.002,0-0.005,0-0.007,0
		c-0.001,0-0.001,0-0.002,0c-0.002,0-0.003,0-0.005,0c0,0-0.002,0-0.002,0c-0.002,0-0.003,0-0.005,0s-0.002,0-0.003,0
		c-0.002,0-0.004,0-0.005,0c0,0-0.001,0-0.002,0c-0.002,0-0.005,0-0.007,0c-0.001,0-0.001,0-0.002,0c-0.002,0-0.003,0-0.005,0
		c-0.001,0-0.002,0-0.003,0c-0.001,0-0.003,0-0.004,0c-0.001,0-0.002,0-0.003,0c-0.002,0-0.004,0-0.005,0c0,0-0.001,0-0.002,0
		c-0.002,0-0.005,0-0.007,0c-0.001,0-0.001,0-0.002,0c-0.001,0-0.003,0-0.005,0c-0.001,0-0.002,0-0.003,0c-0.001,0-0.003,0-0.004,0
		c-0.001,0-0.002,0-0.003,0c-0.001,0-0.003,0-0.004,0c-0.002,0-0.002,0-0.004,0c-0.002,0-0.004,0-0.006,0c-0.001,0-0.002,0-0.003,0
		c-0.001,0-0.002,0-0.004,0c-0.001,0-0.002,0-0.003,0c-0.001,0-0.002,0-0.004,0c0,0-0.002,0-0.003,0c-0.002,0-0.004,0-0.006,0
		h-0.001c-0.002,0-0.004,0-0.007,0c-0.001,0-0.002,0-0.003,0c-0.001,0-0.003,0-0.005,0c-0.001,0-0.001,0-0.002,0
		c-0.002,0-0.003,0-0.005,0c-0.001,0-0.001,0-0.003,0c-0.002,0-0.004,0-0.006,0c0,0-0.001,0-0.001,0c-0.002,0-0.004,0-0.006,0
		c0,0-0.002,0-0.002,0c-0.002,0-0.003,0-0.005,0s-0.002,0-0.003,0c-0.001,0-0.003,0-0.005,0c-0.001,0-0.001,0-0.003,0
		c-0.002,0-0.004,0-0.007,0c0,0,0,0-0.001,0c-0.002,0-0.004,0-0.006,0c0,0-0.002,0-0.002,0c-0.002,0-0.003,0-0.005,0
		c-0.001,0-0.002,0-0.003,0c-0.001,0-0.003,0-0.005,0c-0.001,0-0.001,0-0.002,0c-0.002,0-0.005,0-0.007,0c0,0,0,0-0.001,0
		c-0.002,0-0.004,0-0.006,0c0,0-0.002,0-0.002,0c-0.001,0-0.003,0-0.005,0c-0.001,0-0.001,0-0.003,0s-0.003,0-0.005,0
		c-0.001,0-0.001,0-0.002,0c-0.002,0-0.005,0-0.007,0c-0.001,0-0.001,0-0.002,0c-0.002,0-0.004,0-0.005,0c0,0-0.002,0-0.003,0
		c-0.001,0-0.003,0-0.005,0c0,0-0.002,0-0.002,0c-0.002,0-0.003,0-0.005,0c-0.001,0-0.001,0-0.002,0c-0.002,0-0.005,0-0.007,0
		c-0.001,0-0.001,0-0.003,0s-0.002,0-0.004,0c-0.001,0-0.002,0-0.003,0c-0.001,0-0.003,0-0.004,0c-0.001,0-0.002,0-0.003,0
		c-0.001,0-0.002,0-0.004,0c-0.002,0-0.005,0-0.007,0c-0.001,0-0.002,0-0.003,0c-0.001,0-0.002,0-0.003,0c-0.001,0-0.002,0-0.004,0
		c-0.001,0-0.002,0-0.003,0s-0.003,0-0.004,0c0,0-0.002,0-0.003,0c-0.001,0-0.003,0-0.005,0c-0.001,0-0.001,0-0.003,0
		c-0.001,0-0.004,0-0.006,0c-0.001,0-0.002,0-0.003,0c-0.001,0-0.003,0-0.004,0c-0.001,0-0.002,0-0.003,0c-0.001,0-0.002,0-0.004,0
		s-0.001,0-0.003,0c-0.001,0-0.002,0-0.004,0c-0.002,0-0.003,0-0.005,0c-0.001,0-0.003,0-0.004,0c-0.001,0-0.002,0-0.003,0
		c-0.001,0-0.002,0-0.004,0c-0.001,0-0.002,0-0.003,0c-0.001,0-0.002,0-0.004,0c-0.001,0-0.002,0-0.003,0c-0.001,0-0.003,0-0.004,0
		c-0.002,0-0.004,0-0.007,0c-0.001,0-0.002,0-0.003,0c-0.002,0-0.002,0-0.004,0c-0.001,0-0.002,0-0.003,0s-0.003,0-0.004,0
		c-0.001,0-0.002,0-0.003,0c-0.001,0-0.002,0-0.004,0c-0.001,0-0.002,0-0.003,0c-0.003,0-0.005,0-0.008,0c-0.001,0-0.002,0-0.003,0
		c-0.001,0-0.002,0-0.004,0c-0.001,0-0.002,0-0.003,0c-0.001,0-0.003,0-0.004,0s-0.002,0-0.003,0c-0.001,0-0.002,0-0.004,0
		c-0.001,0-0.001,0-0.002,0c-0.003,0-0.005,0-0.008,0c-0.001,0-0.002,0-0.003,0c-0.001,0-0.002,0-0.004,0c-0.001,0-0.002,0-0.003,0
		c-0.001,0-0.002,0-0.004,0c-0.001,0-0.002,0-0.003,0c-0.005,0-0.01,0.001-0.015,0.001c-0.001,0-0.001,0-0.002,0
		c-0.002,0-0.003,0-0.004,0c-0.001,0-0.002,0-0.003,0c-0.001,0-0.002,0-0.004,0c-0.001,0-0.002,0-0.003,0c-0.001,0-0.003,0-0.005,0
		c-0.002,0-0.004,0-0.005,0c-0.001,0-0.003,0-0.004,0s-0.002,0-0.003,0c-0.001,0-0.003,0-0.004,0s-0.002,0-0.003,0
		c-0.001,0-0.002,0-0.004,0c-0.001,0-0.002,0-0.003,0c-0.001,0-0.004,0-0.005,0c-0.001,0-0.003,0-0.004,0c-0.002,0-0.003,0-0.004,0
		c-0.001,0-0.002,0-0.003,0s-0.003,0-0.004,0c-0.001,0-0.002,0-0.003,0c-0.002,0-0.002,0-0.004,0c-0.001,0-0.002,0-0.004,0
		c-0.002,0-0.004,0-0.006,0c-0.001,0-0.002,0-0.003,0s-0.002,0-0.004,0c-0.001,0-0.002,0-0.003,0c-0.001,0-0.002,0-0.003,0
		c-0.001,0-0.002,0-0.004,0s-0.002,0-0.003,0c-0.001,0-0.003,0-0.004,0c-0.002,0-0.004,0-0.006,0c-0.001,0-0.002,0-0.004,0
		c-0.001,0-0.002,0-0.004,0c-0.001,0-0.002,0-0.003,0s-0.002,0-0.004,0c-0.001,0-0.002,0-0.003,0s-0.002,0-0.003,0
		c-0.001,0-0.002,0-0.004,0c-0.002,0-0.004,0-0.007,0c-0.001,0-0.002,0-0.003,0c-0.001,0-0.002,0-0.004,0c-0.001,0-0.002,0-0.003,0
		s-0.003,0-0.004,0c-0.001,0-0.002,0-0.003,0c-0.001,0-0.003,0-0.004,0c0,0-0.001,0-0.002,0c-0.003,0-0.006,0-0.009,0
		c-0.001,0-0.001,0-0.002,0c-0.001,0-0.003,0-0.005,0c0,0-0.001,0-0.002,0c-0.002,0-0.003,0-0.005,0c-0.001,0-0.001,0-0.002,0
		c-0.002,0-0.003,0-0.005,0c0,0,0,0,0,0c-0.003,0-0.007,0-0.011,0.001c-0.001,0-0.001,0-0.002,0c-0.001,0-0.003,0-0.005,0
		c0,0-0.001,0-0.002,0s-0.003,0-0.004,0c-0.001,0-0.002,0-0.003,0c-0.005,0-0.01,0.001-0.015,0.001c-0.001,0-0.002,0-0.002,0
		c-0.001,0-0.003,0-0.005,0c-0.001,0-0.001,0-0.002,0c-0.001,0-0.003,0-0.004,0c0,0-0.001,0-0.002,0c-0.005,0-0.01,0-0.016,0.001
		c0,0-0.002,0-0.002,0c-0.002,0-0.003,0-0.005,0c0,0-0.001,0-0.002,0c-0.001,0-0.002,0-0.004,0c-0.001,0-0.001,0-0.002,0
		c-0.003,0-0.005,0-0.008,0.001c-0.001,0-0.002,0-0.003,0c-0.001,0-0.002,0-0.004,0c-0.001,0-0.001,0-0.002,0
		c-0.001,0-0.003,0-0.004,0s-0.002,0-0.003,0c-0.002,0-0.002,0-0.004,0c-0.001,0-0.002,0-0.003,0c-0.002,0-0.004,0-0.006,0
		c-0.001,0-0.002,0-0.004,0s-0.002,0-0.004,0c-0.001,0-0.001,0-0.002,0c-0.001,0-0.003,0-0.004,0s-0.002,0-0.003,0
		c-0.001,0-0.002,0-0.004,0c0,0-0.001,0-0.002,0c-0.003,0-0.006,0-0.009,0.001c0,0-0.001,0-0.002,0c-0.001,0-0.003,0-0.005,0
		c0,0-0.001,0-0.002,0c-0.001,0-0.003,0-0.005,0c0,0-0.001,0-0.002,0c-0.001,0-0.003,0-0.005,0h0c-0.004,0-0.007,0.001-0.011,0.001
		c0,0-0.001,0-0.002,0c-0.001,0-0.002,0-0.004,0c0,0-0.001,0-0.002,0c-0.001,0-0.003,0-0.004,0c-0.001,0-0.002,0-0.002,0
		c-0.002,0-0.003,0-0.005,0c0,0,0,0-0.001,0c-0.003,0-0.006,0-0.009,0c-0.001,0-0.002,0-0.003,0c-0.001,0-0.003,0-0.004,0
		c0,0-0.001,0-0.002,0c-0.002,0-0.003,0-0.005,0c0,0-0.001,0-0.001,0c-0.005,0-0.011,0.001-0.016,0.001c0,0-0.001,0-0.002,0
		c-0.002,0-0.003,0-0.005,0c0,0-0.001,0-0.002,0c-0.001,0-0.003,0-0.004,0c-0.001,0-0.001,0-0.002,0c-0.001,0-0.003,0-0.004,0
		c0,0-0.001,0-0.002,0c-0.003,0-0.005,0-0.009,0.001c-0.001,0-0.001,0-0.002,0c-0.002,0-0.003,0-0.004,0c-0.001,0-0.002,0-0.003,0
		c-0.001,0-0.002,0-0.004,0s-0.002,0-0.003,0c-0.002,0-0.004,0-0.007,0.001c-0.001,0-0.002,0-0.003,0c-0.001,0-0.002,0-0.004,0
		c-0.001,0-0.002,0-0.003,0c-0.001,0-0.002,0-0.003,0s-0.002,0-0.003,0c-0.002,0-0.002,0-0.004,0c-0.001,0-0.002,0-0.003,0
		c-0.005,0-0.01,0.001-0.015,0.001c-0.001,0-0.002,0-0.003,0c-0.001,0-0.003,0-0.004,0c0,0-0.001,0-0.002,0
		c-0.002,0-0.003,0-0.005,0c0,0-0.001,0-0.001,0c-0.003,0-0.007,0.001-0.01,0.001c0,0-0.001,0-0.001,0c-0.001,0-0.003,0-0.004,0
		c-0.001,0-0.002,0-0.002,0c-0.001,0-0.003,0-0.005,0c0,0-0.001,0-0.002,0c-0.007,0-0.016,0.001-0.023,0.002c0,0-0.001,0-0.002,0
		c-0.002,0-0.002,0-0.005,0c0,0-0.001,0-0.001,0c-0.001,0-0.003,0-0.005,0c0,0,0,0-0.001,0c-0.003,0-0.007,0.001-0.011,0.001
		c0,0,0,0-0.001,0c-0.001,0-0.003,0-0.005,0c0,0-0.001,0-0.001,0c-0.002,0-0.003,0-0.005,0c0,0-0.001,0-0.002,0
		c-0.006,0-0.011,0.001-0.017,0.002h0c-0.001,0-0.003,0-0.005,0c0,0-0.001,0-0.002,0c-0.001,0-0.003,0-0.005,0c0,0,0,0-0.001,0
		c-0.006,0-0.011,0.001-0.018,0.002c0,0,0,0-0.001,0c-0.002,0-0.003,0-0.005,0c0,0-0.001,0-0.001,0c-0.002,0-0.003,0-0.005,0.001
		c0,0-0.001,0-0.001,0c-0.006,0-0.012,0.001-0.017,0.002c0,0-0.001,0-0.001,0c-0.002,0-0.003,0-0.005,0c0,0-0.001,0-0.001,0
		c-0.002,0-0.003,0-0.005,0c0,0,0,0,0,0c-0.006,0.001-0.012,0.001-0.018,0.002c0,0,0,0,0,0c-0.002,0-0.004,0-0.006,0
		c0,0,0,0-0.001,0c-0.002,0-0.003,0-0.005,0.001c0,0-0.001,0-0.001,0c-0.006,0-0.012,0.001-0.018,0.002c0,0,0,0-0.001,0
		c-0.002,0-0.003,0-0.005,0.001c0,0-0.001,0-0.001,0c-0.008,0.001-0.015,0.002-0.023,0.003c0,0-0.001,0-0.002,0
		c-0.002,0-0.003,0-0.005,0c0,0-0.001,0-0.001,0c-0.008,0.001-0.015,0.001-0.023,0.003c0,0-0.001,0-0.001,0
		c-0.002,0-0.003,0-0.006,0c0,0,0,0-0.001,0C14.016,0.122,14.008,0.123,14,0.124c0,0-0.001,0-0.001,0c-0.002,0-0.003,0-0.005,0
		c0,0,0,0-0.001,0c-0.006,0.001-0.012,0.001-0.018,0.002l0,0c-0.002,0-0.003,0-0.006,0c0,0,0,0-0.001,0c-0.002,0-0.003,0-0.005,0
		c0,0-0.001,0-0.001,0c-0.008,0.001-0.016,0.002-0.023,0.003c0,0-0.001,0-0.001,0c-0.002,0-0.003,0-0.005,0c0,0,0,0,0,0
		c-0.006,0-0.012,0.001-0.018,0.002c0,0-0.001,0-0.001,0c-0.002,0-0.003,0-0.005,0h0c-0.011,0.001-0.021,0.003-0.031,0.004
		c0,0,0,0-0.001,0c-0.008,0.001-0.016,0.002-0.024,0.003c0,0,0,0-0.001,0c-0.002,0-0.003,0-0.005,0.001c0,0,0,0-0.001,0
		c-0.008,0.001-0.016,0.002-0.024,0.003l0,0c-0.002,0-0.003,0-0.006,0.001h-0.001c-0.008,0.001-0.015,0.002-0.023,0.003
		c0,0-0.001,0-0.001,0c-0.002,0-0.003,0-0.005,0c0,0,0,0-0.001,0c-0.008,0.001-0.015,0.002-0.023,0.003c0,0-0.001,0-0.001,0
		c-0.002,0-0.003,0-0.006,0c0,0,0,0-0.001,0c-0.008,0.001-0.016,0.002-0.024,0.003c0,0,0,0,0,0
		c-0.012,0.001-0.024,0.003-0.037,0.005l0,0c-0.006,0.001-0.012,0.001-0.019,0.002l0,0c-0.002,0-0.003,0-0.006,0.001
		c0,0,0,0-0.001,0c-0.002,0-0.003,0-0.005,0.001c0,0,0,0,0,0c-0.006,0.001-0.012,0.002-0.018,0.002c0,0,0,0,0,0
		c-0.002,0-0.004,0-0.006,0l0,0c-0.002,0-0.004,0-0.006,0h0c-0.006,0.001-0.012,0.002-0.018,0.003c0,0,0,0-0.001,0
		c-0.002,0-0.003,0-0.005,0.001c0,0-0.001,0-0.001,0c-0.008,0.001-0.016,0.002-0.023,0.004h0c-0.002,0-0.004,0-0.006,0.001
		c0,0,0,0,0,0c-0.008,0.001-0.016,0.002-0.024,0.003h0c-0.002,0-0.003,0.001-0.006,0.001c0,0,0,0-0.001,0
		c-0.008,0.001-0.015,0.002-0.023,0.003c0,0,0,0-0.001,0c-0.008,0.001-0.016,0.002-0.024,0.004c0,0,0,0,0,0
		c-0.002,0-0.004,0-0.006,0.001h0c-0.002,0-0.004,0.001-0.006,0.001l0,0c-0.008,0.001-0.017,0.003-0.025,0.004l0,0
		c-0.008,0.001-0.017,0.003-0.025,0.004l0,0c-0.002,0-0.004,0.001-0.006,0.001c0,0,0,0,0,0c-0.01,0.001-0.02,0.003-0.03,0.005
		c0,0,0,0-0.001,0c-0.008,0.001-0.016,0.002-0.023,0.004c0,0,0,0-0.001,0c-0.002,0-0.003,0.001-0.006,0.001c0,0,0,0,0,0
		c-0.008,0.001-0.016,0.003-0.024,0.004h0c-0.002,0-0.004,0-0.006,0.001c0,0,0,0,0,0c-0.008,0.001-0.016,0.002-0.024,0.004
		c0,0,0,0,0,0c-0.002,0-0.004,0.001-0.006,0.001h0c-0.008,0.001-0.016,0.002-0.024,0.004l0,0c-0.002,0-0.004,0.001-0.006,0.001
		c0,0,0,0-0.001,0c-0.008,0.001-0.015,0.002-0.023,0.004c0,0,0,0-0.001,0c-0.008,0.001-0.016,0.003-0.024,0.004h0
		c-0.002,0-0.004,0-0.006,0.001c0,0,0,0,0,0c-0.01,0.002-0.02,0.003-0.03,0.005h0c-0.008,0.001-0.016,0.003-0.023,0.004
		c0,0-0.001,0-0.001,0c-0.002,0-0.003,0.001-0.005,0.001c0,0-0.001,0-0.001,0c-0.008,0.001-0.015,0.002-0.023,0.004c0,0,0,0,0,0
		c-0.002,0-0.003,0-0.005,0.001c0,0-0.001,0-0.001,0c-0.008,0.001-0.016,0.003-0.023,0.004h0c-0.002,0-0.004,0.001-0.006,0.001
		c0,0,0,0,0,0c-0.008,0.001-0.016,0.003-0.024,0.004c0,0,0,0,0,0c-0.01,0.002-0.02,0.003-0.03,0.005c0,0-0.001,0-0.001,0
		c-0.002,0-0.003,0-0.005,0.001h0c-0.008,0.001-0.016,0.003-0.024,0.004h0c-0.002,0-0.004,0.001-0.006,0.001l0,0
		c-0.008,0.001-0.016,0.003-0.024,0.004c0,0-0.001,0-0.001,0C12.93,0.294,12.89,0.302,12.849,0.31l0,0
		c-0.008,0.002-0.016,0.003-0.024,0.005l0,0c-0.002,0-0.004,0.001-0.006,0.001l0,0c-0.008,0.001-0.016,0.003-0.024,0.005h0
		c-0.002,0-0.004,0.001-0.006,0.001c0,0,0,0,0,0c-0.008,0.001-0.016,0.003-0.024,0.005l0,0c-0.029,0.006-0.057,0.012-0.085,0.018
		l0,0c-0.002,0-0.004,0.001-0.006,0.001c0,0,0,0,0,0c-0.03,0.006-0.061,0.013-0.091,0.02h0c-0.008,0.002-0.016,0.003-0.023,0.005
		c0,0,0,0-0.001,0c-0.04,0.009-0.08,0.018-0.121,0.027c0,0,0,0,0,0c-0.008,0.002-0.016,0.004-0.024,0.006l0,0
		c-0.01,0.002-0.02,0.004-0.03,0.007h0c-0.002,0-0.004,0.001-0.006,0.001h0c-0.008,0.002-0.016,0.003-0.023,0.005h0
		c-0.01,0.002-0.02,0.005-0.03,0.007h0c-0.002,0-0.004,0.001-0.006,0.001c0,0,0,0,0,0c-0.008,0.002-0.015,0.003-0.023,0.005
		c0,0-0.001,0-0.001,0c-0.039,0.009-0.076,0.018-0.114,0.027l0,0c-0.002,0-0.004,0.001-0.006,0.001c0,0,0,0,0,0
		c-0.008,0.002-0.016,0.004-0.023,0.006c0,0,0,0,0,0c-0.166,0.041-0.331,0.085-0.496,0.131c0,0,0,0,0,0
		c-0.002,0-0.003,0.001-0.005,0.001h0c-0.008,0.002-0.015,0.004-0.023,0.007c0,0,0,0-0.001,0C11.609,0.61,11.6,0.612,11.59,0.615h0
		c-0.01,0.003-0.02,0.006-0.029,0.009l0,0c-0.01,0.003-0.02,0.005-0.03,0.008l0,0c-0.018,0.005-0.036,0.01-0.053,0.016l0,0
		c-0.01,0.003-0.02,0.006-0.029,0.009c0,0,0,0,0,0c-0.002,0-0.003,0.001-0.005,0.001c0,0,0,0,0,0
		c-0.008,0.002-0.015,0.004-0.023,0.007c0,0,0,0-0.001,0c-0.002,0-0.003,0.001-0.005,0.002l0,0
		c-0.008,0.002-0.016,0.004-0.023,0.007l0,0c-0.01,0.003-0.02,0.006-0.029,0.009c0,0,0,0,0,0c-0.008,0.002-0.015,0.005-0.022,0.007
		c0,0-0.001,0-0.001,0c-0.002,0-0.003,0.001-0.005,0.001c0,0,0,0,0,0c-0.01,0.003-0.02,0.006-0.029,0.009c0,0,0,0,0,0
		c-0.008,0.002-0.015,0.005-0.023,0.007h0c-0.01,0.003-0.019,0.006-0.028,0.009c0,0-0.001,0-0.001,0c-0.002,0-0.003,0-0.005,0.001
		c0,0-0.001,0-0.002,0c-0.007,0.002-0.015,0.004-0.021,0.007c0,0-0.001,0-0.001,0c-0.002,0-0.003,0-0.005,0.001c0,0,0,0-0.001,0
		c-0.006,0.002-0.01,0.003-0.016,0.005c0,0-0.001,0-0.001,0c-0.001,0-0.003,0.001-0.005,0.001c0,0-0.001,0-0.001,0
		c-0.002,0.001-0.003,0.001-0.005,0.002c0,0,0,0-0.001,0c-0.006,0.002-0.011,0.003-0.017,0.005l0,0
		c-0.001,0-0.003,0.001-0.005,0.001c0,0-0.001,0-0.001,0c-0.002,0.001-0.003,0.001-0.005,0.002c0,0,0,0,0,0
		c-0.008,0.002-0.015,0.005-0.023,0.007h0c-0.01,0.003-0.019,0.006-0.028,0.009c0,0-0.001,0-0.001,0
		c-0.008,0.002-0.014,0.004-0.022,0.007c0,0,0,0-0.001,0c-0.002,0-0.003,0.001-0.005,0.001l0,0c-0.002,0-0.003,0.001-0.005,0.001h0
		c-0.005,0.002-0.011,0.004-0.017,0.006c0,0,0,0-0.001,0c-0.002,0-0.003,0.001-0.005,0.002c0,0-0.001,0-0.001,0
		c-0.018,0.006-0.035,0.011-0.052,0.017h0c-0.002,0-0.003,0.001-0.005,0.002c0,0,0,0,0,0c-0.007,0.002-0.015,0.005-0.022,0.007
		c0,0-0.001,0-0.001,0c-0.001,0-0.003,0.001-0.005,0.002c0,0,0,0-0.001,0c-0.005,0.002-0.011,0.004-0.016,0.005l0,0
		c-0.001,0-0.003,0.001-0.005,0.001c0,0-0.001,0-0.001,0c-0.002,0-0.003,0.001-0.005,0.001c0,0-0.001,0-0.001,0
		c-0.007,0.002-0.015,0.005-0.022,0.007c0,0,0,0-0.001,0c-0.002,0-0.003,0.001-0.005,0.002h0c-0.005,0.001-0.011,0.003-0.016,0.005
		c0,0-0.001,0-0.001,0c-0.001,0-0.003,0.001-0.005,0.001c0,0-0.001,0-0.001,0c-0.001,0-0.003,0.001-0.004,0.001
		c-0.001,0-0.001,0-0.002,0.001c-0.003,0.001-0.006,0.002-0.01,0.003c0,0,0,0,0,0c-0.001,0-0.003,0.001-0.005,0.001c0,0,0,0-0.001,0
		c-0.002,0-0.003,0.001-0.005,0.001c0,0-0.001,0-0.001,0c-0.007,0.002-0.015,0.005-0.021,0.007c0,0-0.001,0-0.001,0
		c-0.002,0.001-0.003,0.001-0.005,0.002c0,0-0.001,0-0.001,0c-0.001,0-0.003,0.001-0.005,0.001c0,0,0,0,0,0
		c-0.006,0.002-0.01,0.003-0.016,0.005c0,0,0,0-0.001,0c-0.002,0-0.003,0.001-0.005,0.001c0,0-0.001,0-0.001,0
		c-0.005,0.002-0.011,0.004-0.016,0.006h0c-0.001,0-0.003,0.001-0.005,0.001c0,0-0.001,0-0.001,0
		c-0.002,0.001-0.003,0.001-0.005,0.002c0,0-0.001,0-0.001,0c-0.001,0-0.003,0.001-0.004,0.001h0
		c-0.003,0.001-0.007,0.002-0.01,0.004c0,0-0.001,0-0.001,0c-0.001,0-0.003,0.001-0.004,0.002c0,0-0.001,0-0.001,0
		c-0.002,0-0.003,0.001-0.005,0.001c0,0-0.001,0-0.002,0.001c-0.005,0.001-0.009,0.003-0.014,0.005c-0.001,0-0.001,0-0.002,0
		c-0.001,0-0.003,0.001-0.004,0.001s-0.002,0-0.003,0.001s-0.002,0.001-0.004,0.001c0,0-0.001,0-0.002,0
		c-0.005,0.002-0.009,0.003-0.014,0.005c0,0-0.001,0.001-0.002,0.001c-0.001,0-0.002,0.001-0.004,0.001
		c-0.001,0-0.001,0-0.002,0.001c-0.001,0-0.003,0.001-0.005,0.001c0,0,0,0-0.001,0c-0.005,0.001-0.01,0.003-0.015,0.005
		c0,0-0.001,0-0.002,0c-0.001,0-0.002,0.001-0.004,0.001c-0.001,0-0.001,0-0.002,0.001c-0.001,0-0.003,0.001-0.004,0.001
		c0,0-0.001,0-0.001,0c-0.005,0.001-0.01,0.003-0.015,0.005c0,0-0.001,0-0.002,0c-0.002,0-0.002,0.001-0.004,0.001
		c0,0-0.001,0-0.001,0c-0.001,0-0.003,0.001-0.005,0.002c0,0,0,0-0.001,0c-0.003,0.001-0.006,0.002-0.01,0.004c0,0-0.001,0-0.001,0
		c-0.001,0-0.003,0.001-0.004,0.001c0,0-0.001,0-0.002,0c-0.001,0-0.003,0.001-0.004,0.001s-0.002,0-0.003,0.001
		c-0.001,0-0.002,0.001-0.004,0.001c0,0,0,0,0,0c-0.004,0.001-0.007,0.003-0.011,0.004c0,0,0,0,0,0
		c-0.001,0-0.003,0.001-0.004,0.001c0,0-0.001,0-0.002,0.001c-0.001,0-0.003,0.001-0.005,0.001c0,0,0,0-0.001,0
		c-0.005,0.002-0.01,0.003-0.015,0.005c0,0-0.001,0-0.001,0c-0.001,0-0.003,0.001-0.005,0.002c0,0-0.001,0-0.001,0
		c-0.002,0-0.002,0.001-0.004,0.001c-0.001,0-0.001,0-0.002,0.001c-0.005,0.001-0.009,0.003-0.014,0.005
		c-0.001,0-0.001,0-0.002,0.001c-0.001,0-0.003,0-0.004,0.001c-0.001,0-0.002,0-0.003,0.001c-0.001,0-0.002,0-0.004,0.001
		c0,0-0.001,0.001-0.002,0.001c-0.001,0-0.002,0.001-0.004,0.001c0,0-0.001,0-0.002,0.001c-0.002,0.001-0.004,0.002-0.007,0.002
		c-0.001,0-0.002,0.001-0.003,0.001c-0.001,0-0.002,0.001-0.004,0.001c-0.001,0-0.001,0-0.002,0.001
		c-0.001,0-0.003,0.001-0.004,0.001c-0.001,0-0.001,0-0.002,0.001c-0.004,0.001-0.009,0.003-0.014,0.005c0,0-0.001,0-0.002,0.001
		c-0.001,0-0.003,0.001-0.004,0.001c0,0-0.001,0-0.002,0.001c-0.001,0-0.002,0.001-0.004,0.001c0,0-0.001,0-0.001,0
		c-0.005,0.002-0.01,0.003-0.015,0.005c0,0-0.001,0-0.002,0.001c-0.001,0-0.003,0.001-0.004,0.001c0,0-0.001,0-0.002,0.001
		S10.42,1,10.419,1c-0.001,0-0.002,0-0.002,0c-0.002,0.001-0.005,0.002-0.007,0.003c-0.001,0-0.002,0-0.003,0.001
		s-0.002,0.001-0.003,0.001c-0.001,0-0.001,0-0.002,0.001c-0.001,0-0.003,0.001-0.004,0.001c-0.001,0-0.001,0-0.003,0.001
		s-0.002,0.001-0.003,0.001c-0.001,0-0.001,0-0.002,0c-0.002,0.001-0.006,0.002-0.008,0.003c0,0-0.001,0-0.001,0
		c-0.001,0-0.002,0.001-0.004,0.001c-0.001,0-0.001,0-0.002,0.001c-0.001,0-0.003,0.001-0.004,0.001c-0.001,0-0.002,0-0.002,0.001
		c-0.001,0-0.002,0-0.004,0.001c0,0-0.001,0-0.002,0c-0.003,0.001-0.006,0.002-0.009,0.003c0,0-0.001,0-0.001,0
		c-0.001,0-0.003,0.001-0.004,0.001c0,0-0.001,0-0.001,0.001c-0.001,0-0.003,0.001-0.004,0.001c0,0-0.001,0-0.002,0.001
		s-0.002,0.001-0.004,0.001h0c-0.004,0.001-0.006,0.002-0.01,0.004c0,0,0,0-0.001,0c-0.001,0-0.002,0.001-0.004,0.001
		c-0.001,0-0.002,0-0.003,0.001c-0.001,0-0.002,0.001-0.004,0.001c0,0-0.001,0-0.002,0.001c-0.001,0-0.003,0.001-0.004,0.001
		c0,0,0,0,0,0c-0.003,0.001-0.006,0.002-0.009,0.003c-0.001,0-0.001,0-0.002,0c-0.001,0.001-0.003,0.001-0.004,0.002
		c0,0-0.001,0-0.001,0c-0.001,0-0.003,0.001-0.004,0.002c-0.001,0-0.001,0-0.002,0c-0.005,0.002-0.01,0.004-0.015,0.006
		c0,0,0,0-0.001,0c-0.001,0-0.003,0.001-0.004,0.001c0,0-0.001,0-0.002,0.001c-0.001,0-0.003,0.001-0.004,0.001
		c0,0-0.001,0-0.002,0.001c-0.004,0.001-0.009,0.003-0.014,0.005c0,0-0.001,0-0.002,0c-0.001,0.001-0.002,0.001-0.004,0.002
		c-0.001,0-0.001,0-0.002,0c-0.001,0.001-0.002,0.001-0.004,0.002c-0.001,0-0.001,0-0.002,0.001
		c-0.005,0.001-0.009,0.003-0.014,0.005c0,0-0.001,0-0.001,0c-0.001,0-0.003,0.001-0.004,0.001c0,0-0.001,0.001-0.002,0.001
		c-0.001,0-0.003,0.001-0.004,0.001c0,0-0.001,0-0.001,0.001c-0.005,0.001-0.009,0.003-0.014,0.005c-0.001,0-0.002,0-0.002,0.001
		c-0.001,0-0.003,0.001-0.004,0.001c0,0-0.001,0-0.002,0.001c-0.001,0-0.002,0.001-0.004,0.001c-0.001,0-0.001,0-0.002,0.001
		C10.163,1.098,10.16,1.099,10.157,1.1c0,0-0.001,0-0.001,0.001c-0.001,0-0.003,0.001-0.004,0.001c0,0-0.001,0-0.002,0.001
		c-0.001,0-0.003,0.001-0.004,0.001c-0.001,0-0.002,0-0.003,0.001c-0.001,0-0.002,0.001-0.003,0.001s-0.002,0.001-0.003,0.001
		c-0.002,0-0.004,0.001-0.005,0.002s-0.002,0.001-0.003,0.001c-0.001,0-0.002,0.001-0.004,0.001c0,0-0.001,0-0.002,0.001
		s-0.003,0.001-0.004,0.001c0,0-0.001,0-0.002,0.001c-0.001,0-0.003,0.001-0.004,0.001l0,0c-0.004,0.001-0.007,0.003-0.011,0.004
		l0,0c-0.001,0.001-0.003,0.001-0.005,0.002c0,0-0.001,0-0.001,0.001c-0.001,0-0.003,0.001-0.004,0.001c0,0-0.001,0-0.002,0.001
		c-0.005,0.002-0.01,0.004-0.015,0.005c0,0-0.001,0-0.001,0.001c-0.001,0-0.002,0.001-0.004,0.001c-0.001,0-0.002,0-0.002,0.001
		c-0.001,0-0.002,0.001-0.004,0.001c-0.001,0-0.001,0-0.002,0.001c-0.004,0.002-0.009,0.003-0.013,0.005
		c-0.001,0-0.002,0-0.003,0.001s-0.002,0.001-0.003,0.001c-0.001,0-0.002,0.001-0.002,0.001c-0.001,0-0.003,0.001-0.004,0.001
		c-0.001,0-0.002,0.001-0.003,0.001c-0.002,0-0.005,0.002-0.007,0.003c-0.001,0-0.001,0-0.002,0
		c-0.001,0.001-0.002,0.001-0.004,0.002c0,0-0.001,0-0.002,0c-0.001,0.001-0.002,0.001-0.004,0.002c-0.001,0-0.002,0-0.003,0.001
		s-0.002,0.001-0.003,0.001S10.001,1.163,10,1.163c0,0-0.002,0.001-0.003,0.001C9.995,1.165,9.993,1.166,9.991,1.167
		c-0.001,0-0.002,0.001-0.003,0.001c-0.001,0-0.002,0-0.002,0.001c-0.001,0-0.003,0.001-0.004,0.001S9.979,1.171,9.979,1.171
		C9.977,1.172,9.977,1.172,9.975,1.173c-0.001,0-0.002,0.001-0.003,0.001c-0.002,0-0.004,0.001-0.006,0.002
		c-0.001,0-0.002,0.001-0.003,0.001c-0.001,0-0.002,0-0.003,0.001c-0.001,0-0.002,0.001-0.003,0.001S9.955,1.182,9.954,1.182
		c-0.001,0-0.003,0.001-0.004,0.002c0,0-0.002,0-0.002,0.001c-0.001,0-0.003,0.001-0.004,0.001S9.94,1.188,9.938,1.188
		c-0.001,0-0.002,0.001-0.004,0.001S9.933,1.19,9.932,1.191c-0.001,0-0.002,0.001-0.003,0.001c-0.001,0-0.002,0.001-0.003,0.002
		c-0.001,0-0.002,0-0.003,0.001c-0.001,0-0.002,0.001-0.003,0.001c-0.001,0-0.002,0.001-0.003,0.001
		c-0.002,0-0.003,0.001-0.005,0.002c-0.001,0-0.002,0.001-0.004,0.001S9.905,1.202,9.903,1.203c-0.001,0-0.002,0-0.003,0.001
		S9.897,1.205,9.896,1.205S9.895,1.206,9.894,1.207c-0.001,0-0.002,0-0.003,0.001c-0.001,0-0.002,0.001-0.004,0.001
		S9.883,1.211,9.882,1.211S9.879,1.212,9.878,1.213s-0.001,0-0.003,0.001c-0.001,0-0.002,0-0.003,0.001S9.869,1.216,9.868,1.217
		S9.866,1.218,9.865,1.218S9.863,1.219,9.862,1.219C9.86,1.22,9.858,1.221,9.856,1.222c-0.001,0-0.002,0.001-0.003,0.001
		c-0.001,0-0.002,0.001-0.004,0.001c-0.001,0-0.002,0.001-0.003,0.001S9.845,1.227,9.843,1.228c-0.001,0-0.002,0-0.003,0.001
		c-0.001,0-0.002,0.001-0.004,0.002c-0.001,0-0.001,0-0.002,0C9.832,1.232,9.83,1.233,9.828,1.234c-0.001,0-0.001,0-0.002,0.001
		c-0.001,0-0.003,0.001-0.004,0.001c0,0-0.001,0.001-0.002,0.001c-0.001,0-0.002,0.001-0.004,0.001c-0.001,0-0.002,0-0.003,0.001
		c-0.001,0-0.003,0.001-0.004,0.002c-0.001,0-0.001,0-0.001,0.001c-0.002,0-0.004,0.001-0.006,0.002c-0.001,0-0.001,0-0.002,0.001
		c-0.001,0-0.003,0.001-0.005,0.002c-0.001,0-0.001,0-0.002,0.001S9.788,1.25,9.787,1.251c-0.001,0-0.001,0.001-0.002,0.001
		C9.783,1.253,9.781,1.253,9.78,1.254c0,0-0.001,0.001-0.002,0.001C9.776,1.256,9.773,1.257,9.771,1.257
		c-0.001,0-0.001,0-0.002,0.001c-0.001,0-0.003,0.001-0.004,0.002c-0.001,0-0.002,0-0.003,0.001S9.76,1.262,9.759,1.263
		C9.757,1.264,9.757,1.264,9.756,1.264S9.753,1.265,9.752,1.266S9.75,1.267,9.75,1.267C9.748,1.268,9.746,1.269,9.744,1.27
		c-0.001,0-0.002,0-0.003,0.001c-0.001,0-0.002,0.001-0.003,0.001S9.735,1.273,9.734,1.273c-0.001,0-0.003,0.001-0.004,0.001
		c0,0-0.002,0.001-0.002,0.001C9.726,1.277,9.725,1.277,9.723,1.278c-0.001,0-0.002,0.001-0.003,0.001
		c-0.001,0-0.003,0.001-0.005,0.002c-0.001,0-0.001,0.001-0.003,0.001c-0.001,0-0.002,0.001-0.003,0.001S9.707,1.285,9.706,1.285
		c-0.001,0-0.002,0.001-0.003,0.001C9.701,1.288,9.701,1.288,9.7,1.288c-0.001,0-0.003,0.001-0.004,0.002
		c-0.001,0-0.002,0.001-0.003,0.001c-0.001,0-0.003,0.001-0.004,0.002c-0.001,0-0.002,0-0.003,0.001S9.682,1.295,9.681,1.296
		S9.679,1.297,9.678,1.297S9.676,1.298,9.675,1.299C9.673,1.299,9.673,1.3,9.671,1.3c0,0-0.001,0-0.002,0.001
		C9.667,1.302,9.665,1.303,9.662,1.304c-0.001,0-0.002,0.001-0.002,0.001C9.658,1.306,9.657,1.306,9.656,1.307
		c0,0-0.001,0-0.002,0.001c-0.001,0-0.002,0.001-0.004,0.001c0,0-0.001,0-0.002,0.001C9.644,1.313,9.639,1.314,9.635,1.316
		c-0.001,0-0.002,0.001-0.003,0.001C9.63,1.318,9.629,1.318,9.628,1.319c-0.001,0-0.002,0.001-0.002,0.001
		c-0.001,0-0.002,0.001-0.004,0.001c0,0-0.002,0.001-0.002,0.001C9.618,1.324,9.617,1.324,9.615,1.325
		c-0.002,0-0.003,0.001-0.005,0.002c-0.001,0-0.002,0-0.003,0.001c-0.001,0-0.002,0.001-0.003,0.001S9.601,1.331,9.6,1.331
		S9.598,1.332,9.597,1.333c-0.001,0-0.002,0.001-0.002,0.001c-0.001,0-0.002,0.001-0.004,0.001c-0.001,0-0.002,0.001-0.003,0.001
		c-0.002,0-0.004,0.001-0.006,0.002c-0.001,0-0.002,0-0.003,0.001S9.577,1.341,9.576,1.342S9.573,1.343,9.572,1.343
		S9.57,1.344,9.569,1.345S9.567,1.346,9.566,1.346c-0.001,0-0.002,0.001-0.003,0.001c-0.001,0-0.003,0.001-0.005,0.002
		S9.555,1.351,9.554,1.352c-0.001,0-0.002,0.001-0.003,0.001c-0.001,0-0.002,0.001-0.003,0.002S9.545,1.355,9.544,1.355
		c-0.001,0-0.002,0.001-0.003,0.001C9.54,1.358,9.54,1.358,9.538,1.358c-0.001,0-0.002,0.001-0.003,0.001
		C9.533,1.361,9.531,1.361,9.53,1.362c-0.001,0-0.003,0.001-0.004,0.001S9.524,1.365,9.523,1.365S9.521,1.366,9.52,1.367
		c-0.001,0-0.002,0.001-0.003,0.001c-0.001,0-0.002,0.001-0.004,0.001c0,0-0.001,0.001-0.002,0.001
		C9.509,1.372,9.507,1.372,9.505,1.373c0,0-0.001,0-0.002,0C9.501,1.375,9.5,1.375,9.498,1.376c-0.001,0-0.002,0-0.002,0.001
		c-0.001,0-0.003,0.001-0.004,0.001S9.49,1.38,9.489,1.38c-0.001,0-0.002,0.001-0.003,0.001c-0.001,0-0.001,0.001-0.003,0.001
		c-0.001,0-0.002,0.001-0.003,0.001c-0.002,0-0.004,0.002-0.006,0.002c-0.001,0-0.002,0.001-0.003,0.001
		c-0.001,0-0.001,0-0.003,0.001c-0.001,0-0.002,0.001-0.003,0.001s-0.002,0-0.003,0.001C9.459,1.394,9.458,1.394,9.457,1.395
		c0,0-0.001,0-0.002,0.001C9.453,1.396,9.451,1.397,9.449,1.398c-0.001,0-0.001,0.001-0.003,0.001S9.443,1.4,9.442,1.401
		c0,0-0.002,0.001-0.003,0.001c-0.001,0-0.002,0.001-0.003,0.001S9.434,1.405,9.433,1.405c-0.001,0-0.002,0.001-0.003,0.001
		S9.428,1.408,9.427,1.408c-0.001,0-0.003,0.001-0.004,0.002S9.419,1.412,9.418,1.412c-0.001,0-0.002,0.001-0.003,0.001
		S9.413,1.415,9.412,1.415S9.409,1.416,9.408,1.417S9.406,1.417,9.405,1.418c-0.001,0-0.002,0.001-0.003,0.001S9.4,1.42,9.399,1.421
		C9.397,1.422,9.395,1.422,9.393,1.423c-0.001,0-0.002,0.001-0.003,0.001S9.388,1.426,9.387,1.426S9.385,1.427,9.384,1.428
		c-0.001,0-0.002,0.001-0.003,0.001c-0.001,0-0.002,0.001-0.003,0.001c-0.001,0-0.002,0.001-0.003,0.001
		c0,0-0.002,0.001-0.003,0.001c0,0-0.001,0-0.001,0C9.367,1.436,9.364,1.437,9.362,1.438c-0.001,0-0.002,0.001-0.002,0.001
		c-0.001,0-0.003,0.001-0.004,0.001S9.354,1.441,9.353,1.441C9.352,1.442,9.351,1.442,9.35,1.443c-0.001,0-0.002,0.001-0.003,0.001
		c-0.002,0-0.004,0.001-0.006,0.002c-0.001,0-0.002,0.001-0.003,0.001c-0.001,0-0.002,0.001-0.003,0.001
		c-0.001,0-0.002,0.001-0.003,0.001S9.329,1.453,9.328,1.453S9.326,1.454,9.325,1.455c-0.001,0-0.002,0.001-0.003,0.001
		c-0.001,0-0.001,0-0.002,0.001C9.317,1.458,9.314,1.459,9.312,1.46c0,0-0.001,0-0.001,0.001c-0.001,0-0.002,0.001-0.003,0.001
		S9.305,1.464,9.304,1.464S9.301,1.465,9.3,1.466S9.298,1.467,9.298,1.467c-0.001,0-0.002,0.001-0.004,0.001
		c0,0-0.001,0-0.002,0.001C9.29,1.471,9.287,1.472,9.285,1.473c-0.001,0-0.002,0-0.003,0.001c-0.001,0-0.002,0.001-0.003,0.001
		c-0.001,0-0.002,0.001-0.002,0.001c-0.001,0-0.003,0.001-0.004,0.001c0,0-0.001,0.001-0.002,0.001
		c-0.001,0-0.002,0.001-0.003,0.001S9.265,1.482,9.264,1.483C9.262,1.484,9.259,1.485,9.257,1.486c-0.001,0-0.002,0.001-0.002,0.001
		C9.253,1.488,9.252,1.488,9.251,1.489c0,0-0.001,0-0.002,0.001S9.246,1.491,9.245,1.492c-0.001,0-0.002,0.001-0.003,0.001
		C9.241,1.494,9.24,1.494,9.239,1.494c-0.001,0-0.002,0.001-0.003,0.002C9.233,1.497,9.232,1.498,9.229,1.499
		c-0.001,0-0.001,0-0.002,0.001S9.225,1.501,9.224,1.501S9.222,1.502,9.221,1.503c-0.001,0-0.003,0.001-0.004,0.001
		c0,0-0.001,0.001-0.002,0.001C9.21,1.508,9.206,1.51,9.201,1.512c0,0,0,0,0,0c-0.001,0-0.003,0.001-0.005,0.002
		c0,0-0.001,0-0.001,0.001c-0.001,0-0.003,0.001-0.004,0.002c0,0,0,0-0.001,0C9.184,1.52,9.179,1.522,9.174,1.525
		c0,0-0.001,0-0.002,0.001c-0.001,0-0.003,0.001-0.004,0.001S9.167,1.528,9.166,1.529c-0.001,0-0.002,0.001-0.004,0.001
		c0,0-0.001,0.001-0.002,0.001C9.158,1.533,9.155,1.534,9.153,1.535c-0.001,0-0.002,0.001-0.002,0.001
		c-0.001,0-0.002,0.001-0.004,0.001c0,0-0.001,0.001-0.002,0.001C9.143,1.54,9.142,1.54,9.141,1.541S9.139,1.542,9.138,1.542
		C9.137,1.542,9.136,1.543,9.135,1.543c-0.001,0-0.001,0-0.002,0.001C9.13,1.546,9.128,1.546,9.126,1.547
		c-0.001,0-0.002,0.001-0.003,0.001C9.122,1.55,9.121,1.55,9.12,1.551c-0.001,0-0.001,0-0.002,0.001S9.114,1.553,9.113,1.554
		c0,0-0.001,0-0.002,0.001C9.109,1.556,9.109,1.556,9.107,1.557c-0.001,0-0.002,0-0.003,0.001c-0.002,0-0.004,0.002-0.006,0.003
		c-0.001,0-0.001,0-0.002,0.001c-0.001,0-0.002,0.001-0.004,0.002c0,0-0.001,0-0.002,0.001c-0.001,0-0.003,0.001-0.004,0.002
		s-0.001,0-0.002,0.001C9.082,1.569,9.082,1.569,9.08,1.57c-0.001,0-0.002,0.001-0.003,0.001S9.074,1.573,9.072,1.573
		C9.071,1.574,9.069,1.575,9.068,1.575S9.066,1.576,9.065,1.577c-0.001,0-0.002,0.001-0.003,0.002c-0.001,0-0.002,0-0.003,0.001
		c-0.001,0-0.002,0.001-0.003,0.002c-0.001,0-0.002,0.001-0.003,0.001c-0.001,0-0.002,0.001-0.004,0.001
		C9.047,1.585,9.046,1.586,9.044,1.587c-0.001,0-0.002,0.001-0.004,0.001C9.04,1.589,9.039,1.589,9.038,1.59
		c-0.001,0-0.002,0.001-0.003,0.001S9.032,1.593,9.031,1.593s-0.001,0-0.002,0.001C9.027,1.595,9.026,1.595,9.025,1.596
		c-0.001,0-0.003,0.001-0.004,0.002C9.02,1.599,9.018,1.6,9.017,1.6c-0.001,0-0.002,0.001-0.003,0.001
		C9.012,1.603,9.012,1.603,9.01,1.604c-0.001,0-0.002,0.001-0.003,0.001c-0.001,0-0.002,0.001-0.003,0.002S9.002,1.607,9.001,1.608
		S8.999,1.609,8.998,1.609S8.996,1.61,8.995,1.611C8.993,1.612,8.991,1.613,8.989,1.614c-0.001,0-0.001,0.001-0.002,0.001
		c-0.001,0-0.002,0.001-0.004,0.002c0,0-0.001,0-0.002,0C8.979,1.619,8.978,1.619,8.977,1.62c-0.001,0-0.001,0.001-0.002,0.001
		C8.97,1.623,8.965,1.625,8.961,1.627c-0.001,0-0.001,0-0.002,0.001c-0.001,0-0.002,0.001-0.004,0.002c0,0-0.001,0-0.002,0.001
		c-0.001,0-0.003,0.001-0.004,0.002c0,0,0,0-0.001,0C8.943,1.636,8.938,1.639,8.934,1.641c0,0-0.001,0.001-0.002,0.001
		C8.93,1.643,8.929,1.643,8.928,1.644c0,0-0.001,0.001-0.001,0.001c-0.001,0-0.003,0.001-0.004,0.002c0,0-0.001,0-0.001,0
		C8.917,1.649,8.914,1.65,8.911,1.652l0,0c-0.001,0-0.002,0.001-0.004,0.002c-0.001,0-0.001,0-0.002,0.001
		c0,0-0.002,0.001-0.003,0.002s-0.001,0-0.002,0.001C8.897,1.659,8.896,1.659,8.895,1.66c-0.001,0-0.002,0.001-0.003,0.001
		C8.89,1.663,8.888,1.663,8.887,1.664c-0.001,0-0.002,0.001-0.003,0.002c-0.001,0-0.002,0.001-0.004,0.002c0,0-0.001,0-0.002,0.001
		c-0.002,0-0.002,0.001-0.004,0.002c0,0-0.001,0-0.001,0C8.871,1.672,8.869,1.673,8.867,1.674h0C8.863,1.676,8.86,1.677,8.856,1.679
		l0,0c-0.001,0-0.003,0.001-0.004,0.002c-0.001,0-0.001,0-0.001,0C8.849,1.683,8.848,1.684,8.846,1.684c0,0-0.001,0.001-0.002,0.001
		c-0.006,0.003-0.013,0.007-0.02,0.01c0,0-0.001,0.001-0.001,0.001C8.822,1.697,8.82,1.697,8.819,1.698c0,0-0.001,0-0.001,0
		c-0.004,0.002-0.01,0.005-0.015,0.007c0,0-0.001,0-0.001,0c-0.001,0-0.003,0.001-0.004,0.002c0,0,0,0-0.001,0
		C8.794,1.71,8.793,1.711,8.792,1.712h0C8.784,1.716,8.777,1.719,8.77,1.723l0,0C8.762,1.727,8.755,1.73,8.749,1.734h0
		C8.746,1.735,8.745,1.735,8.743,1.736c0,0,0,0-0.001,0C8.741,1.738,8.739,1.738,8.738,1.739c0,0,0,0-0.001,0
		c-0.005,0.002-0.01,0.005-0.015,0.007c0,0-0.001,0-0.001,0C8.719,1.749,8.718,1.749,8.717,1.75c-0.001,0-0.001,0-0.002,0.001
		c-0.001,0-0.003,0.001-0.004,0.002l0,0C8.705,1.756,8.7,1.758,8.695,1.761c0,0-0.001,0-0.001,0.001
		C8.692,1.763,8.691,1.763,8.689,1.764c0,0-0.001,0-0.001,0c-0.007,0.003-0.014,0.007-0.021,0.01c0,0,0,0-0.001,0
		C8.666,1.776,8.664,1.777,8.662,1.778l0,0c-0.007,0.003-0.014,0.007-0.021,0.01c0,0,0,0-0.001,0.001
		C8.638,1.791,8.637,1.791,8.635,1.792c0,0,0,0-0.001,0c-0.007,0.003-0.014,0.007-0.021,0.01c0,0,0,0,0,0
		C8.612,1.804,8.61,1.805,8.608,1.806c0,0,0,0,0,0C8.601,1.81,8.594,1.813,8.587,1.817c0,0,0,0-0.001,0
		C8.578,1.822,8.569,1.827,8.56,1.831l0,0C8.551,1.836,8.542,1.84,8.534,1.845c0,0,0,0,0,0C8.526,1.849,8.519,1.853,8.512,1.856l0,0
		C8.51,1.857,8.508,1.858,8.506,1.859l0,0C8.498,1.864,8.489,1.869,8.48,1.874l0,0C8.473,1.877,8.466,1.881,8.459,1.885
		c0,0,0,0-0.001,0C8.457,1.886,8.455,1.887,8.453,1.888l0,0C8.426,1.902,8.4,1.917,8.374,1.931c0,0,0,0,0,0
		C8.366,1.935,8.359,1.938,8.352,1.942v0C8.344,1.947,8.337,1.951,8.329,1.956l0.96,1.754C11.333,2.591,13.653,2,16,2V0L16,0L16,0z
		 M5.847,3.633c-0.985,0.81-1.872,1.735-2.64,2.755l0,0C3.202,6.395,3.198,6.401,3.193,6.407c0,0,0,0,0,0
		C3.188,6.414,3.184,6.42,3.179,6.426c0,0,0,0,0,0.001c-0.037,0.05-0.074,0.099-0.11,0.149l0,0C3.066,6.579,3.065,6.58,3.064,6.582
		h0C3.06,6.588,3.055,6.594,3.05,6.601c0,0,0,0,0,0C3.045,6.607,3.041,6.614,3.036,6.62c0,0,0,0,0,0
		C3.031,6.627,3.027,6.633,3.022,6.64c0,0,0,0,0,0C3.017,6.646,3.013,6.652,3.008,6.659c0,0,0,0.001-0.001,0.001
		C3.006,6.662,3.006,6.662,3.004,6.664c0,0,0,0,0,0.001C3.001,6.669,2.998,6.674,2.995,6.678c0,0.001-0.001,0.001-0.001,0.001
		C2.992,6.681,2.992,6.682,2.991,6.683c0,0-0.001,0.001-0.001,0.001C2.989,6.686,2.988,6.688,2.987,6.688c0,0,0,0,0,0.001
		C2.984,6.692,2.982,6.695,2.981,6.697c0,0-0.001,0.001-0.001,0.001C2.979,6.7,2.978,6.701,2.977,6.702
		c0,0.001-0.001,0.001-0.001,0.002C2.975,6.706,2.974,6.707,2.973,6.708c0,0-0.001,0.001-0.001,0.001
		C2.969,6.713,2.966,6.718,2.963,6.722c0,0,0,0.001-0.001,0.001C2.961,6.725,2.96,6.726,2.959,6.728c0,0,0,0.001-0.001,0.001
		C2.955,6.733,2.953,6.737,2.95,6.741c0,0.001-0.001,0.001-0.001,0.002C2.947,6.744,2.946,6.746,2.945,6.747
		c0,0,0,0.001-0.001,0.002C2.943,6.75,2.942,6.751,2.941,6.752c0,0,0,0.001-0.001,0.002C2.938,6.756,2.937,6.759,2.935,6.761
		c0,0,0,0-0.001,0.001c0,0.001-0.001,0.002-0.002,0.004c0,0-0.001,0.001-0.001,0.001c0,0.001-0.001,0.003-0.002,0.004
		c0,0,0,0.001-0.001,0.001C2.924,6.777,2.921,6.782,2.918,6.786c0,0-0.001,0.001-0.001,0.001C2.916,6.789,2.915,6.79,2.914,6.791
		c0,0,0,0.001-0.001,0.001C2.912,6.794,2.911,6.795,2.91,6.796c0,0,0,0,0,0C2.908,6.8,2.906,6.803,2.904,6.806c0,0,0,0-0.001,0.001
		c0,0.001-0.001,0.002-0.002,0.004c0,0-0.001,0.001-0.001,0.002C2.898,6.813,2.897,6.814,2.896,6.816c0,0,0,0.001-0.001,0.001
		C2.894,6.82,2.892,6.823,2.89,6.825c0,0,0,0-0.001,0.001C2.888,6.828,2.888,6.829,2.887,6.83c0,0.001-0.001,0.001-0.001,0.002
		c0,0-0.002,0.002-0.002,0.003c0,0-0.001,0.001-0.001,0.002C2.878,6.841,2.876,6.845,2.873,6.849c0,0.001-0.001,0.001-0.001,0.002
		c0,0-0.001,0.002-0.002,0.003C2.869,6.855,2.868,6.856,2.868,6.857C2.867,6.858,2.866,6.859,2.865,6.86
		c0,0.001-0.001,0.002-0.001,0.002C2.862,6.865,2.861,6.867,2.86,6.869c0,0-0.001,0.001-0.002,0.002
		c0,0.001-0.001,0.002-0.002,0.003S2.854,6.876,2.854,6.876C2.853,6.878,2.853,6.878,2.852,6.88
		C2.851,6.881,2.851,6.881,2.851,6.882C2.849,6.884,2.848,6.886,2.846,6.888c0,0.001-0.001,0.002-0.002,0.003
		c0,0-0.001,0.002-0.001,0.002C2.842,6.894,2.841,6.896,2.84,6.896c0,0-0.001,0.002-0.002,0.003c0,0-0.001,0.001-0.002,0.002
		C2.835,6.903,2.835,6.904,2.834,6.905c0,0.001-0.001,0.001-0.001,0.002C2.832,6.909,2.83,6.911,2.829,6.913
		c0,0.001-0.001,0.002-0.001,0.002c0,0.001-0.002,0.002-0.002,0.003c0,0-0.001,0.001-0.001,0.002
		C2.822,6.922,2.822,6.923,2.821,6.925c0,0-0.001,0.001-0.001,0.002C2.818,6.929,2.817,6.93,2.815,6.932
		c0,0.001-0.001,0.002-0.002,0.003C2.813,6.937,2.813,6.937,2.812,6.938c0,0.001-0.001,0.002-0.002,0.003
		c-0.001,0-0.001,0.001-0.002,0.002C2.807,6.945,2.806,6.946,2.805,6.947c0,0.001-0.001,0.001-0.001,0.002
		C2.802,6.952,2.801,6.953,2.8,6.955c0,0.001-0.001,0.001-0.001,0.002c0,0.001-0.001,0.002-0.002,0.004c0,0-0.001,0.001-0.001,0.002
		C2.793,6.964,2.792,6.966,2.792,6.967C2.791,6.968,2.791,6.968,2.791,6.969C2.789,6.971,2.788,6.973,2.787,6.975
		c0,0.001-0.001,0.001-0.001,0.002C2.784,6.978,2.783,6.979,2.783,6.98C2.782,6.981,2.782,6.982,2.781,6.982
		C2.78,6.984,2.779,6.985,2.778,6.986c0,0-0.001,0.002-0.001,0.002C2.776,6.99,2.775,6.992,2.774,6.993c0,0,0,0.001-0.001,0.001
		C2.772,6.996,2.771,6.998,2.77,7C2.769,7,2.768,7.001,2.768,7.002C2.767,7.003,2.766,7.005,2.765,7.006
		c0,0.001-0.001,0.001-0.001,0.002C2.763,7.01,2.762,7.011,2.761,7.012c0,0.001,0,0.001-0.001,0.001
		C2.758,7.016,2.757,7.018,2.756,7.02c0,0.001,0,0.001-0.001,0.002c0,0.001-0.001,0.002-0.002,0.004c0,0-0.001,0.001-0.002,0.002
		c0,0.001-0.001,0.002-0.002,0.004c0,0-0.001,0.001-0.001,0.001C2.745,7.036,2.744,7.037,2.743,7.039c0,0,0,0-0.001,0.001
		C2.741,7.042,2.74,7.043,2.738,7.045c0,0,0,0.001-0.001,0.001C2.736,7.048,2.735,7.05,2.734,7.051c0,0-0.001,0.001-0.001,0.001
		C2.732,7.055,2.731,7.057,2.729,7.059l0,0C2.728,7.061,2.727,7.063,2.725,7.065c0,0,0,0.001-0.001,0.001
		C2.723,7.068,2.722,7.069,2.721,7.071c0,0.001,0,0.001-0.001,0.001C2.719,7.074,2.718,7.076,2.717,7.077c0,0,0,0-0.001,0.001
		C2.715,7.081,2.713,7.083,2.712,7.084c0,0,0,0.001-0.001,0.001C2.71,7.087,2.709,7.089,2.708,7.09c0,0.001,0,0.001-0.001,0.002
		C2.706,7.094,2.705,7.095,2.704,7.097c0,0,0,0.001-0.001,0.001C2.702,7.1,2.7,7.102,2.699,7.104c0,0,0,0,0,0.001
		C2.697,7.106,2.696,7.108,2.695,7.11c0,0-0.001,0.001-0.001,0.002C2.693,7.113,2.692,7.115,2.691,7.116
		c0,0.001-0.001,0.001-0.001,0.002C2.688,7.12,2.688,7.121,2.687,7.123c0,0,0,0.001-0.001,0.001
		C2.685,7.125,2.683,7.127,2.682,7.129C2.681,7.13,2.681,7.131,2.68,7.132C2.679,7.133,2.679,7.134,2.678,7.136
		c0,0-0.001,0.001-0.001,0.002C2.675,7.139,2.675,7.14,2.674,7.142c0,0.001-0.001,0.001-0.001,0.002
		C2.671,7.146,2.67,7.147,2.668,7.149c0,0,0,0.001,0,0.001C2.667,7.152,2.666,7.154,2.665,7.155c0,0.001-0.001,0.001-0.001,0.002
		c0,0.001-0.001,0.003-0.002,0.004c0,0-0.001,0.001-0.001,0.001C2.658,7.165,2.657,7.167,2.656,7.169h0
		C2.654,7.171,2.653,7.173,2.651,7.175c0,0,0,0.001-0.001,0.001C2.649,7.178,2.648,7.18,2.647,7.181c0,0.001,0,0.001-0.001,0.002
		C2.645,7.185,2.644,7.186,2.643,7.188c0,0,0,0.001,0,0.001C2.641,7.191,2.64,7.193,2.639,7.195c0,0-0.001,0.001-0.001,0.001
		C2.637,7.198,2.636,7.199,2.634,7.201c0,0,0,0-0.001,0.001C2.632,7.204,2.631,7.206,2.63,7.207c0,0,0,0.001-0.001,0.001
		C2.626,7.212,2.624,7.217,2.622,7.221c0,0-0.001,0.001-0.001,0.001C2.619,7.224,2.618,7.225,2.617,7.227c0,0,0,0.001-0.001,0.001
		C2.615,7.23,2.614,7.232,2.613,7.234l0,0C2.611,7.236,2.61,7.238,2.608,7.241c0,0,0,0,0,0.001C2.606,7.243,2.605,7.245,2.604,7.247
		c0,0-0.001,0.001-0.001,0.001C2.602,7.25,2.601,7.252,2.6,7.254l0,0C2.598,7.256,2.597,7.258,2.596,7.26c0,0,0,0-0.001,0.001
		C2.594,7.263,2.593,7.265,2.591,7.266c0,0,0,0.001-0.001,0.001C2.589,7.27,2.588,7.271,2.587,7.273c0,0,0,0-0.001,0.001
		C2.584,7.278,2.582,7.282,2.579,7.286c0,0-0.001,0.001-0.001,0.001C2.577,7.29,2.576,7.291,2.574,7.292c0,0,0,0,0,0.001
		C2.571,7.297,2.568,7.302,2.566,7.306c0,0,0,0-0.001,0.001C2.564,7.309,2.563,7.31,2.562,7.312c0,0,0,0.001-0.001,0.001
		C2.56,7.315,2.559,7.317,2.557,7.319v0C2.556,7.322,2.554,7.324,2.553,7.326c0,0,0,0,0,0.001C2.551,7.329,2.55,7.33,2.549,7.332
		c0,0,0,0.001-0.001,0.001C2.547,7.335,2.546,7.336,2.545,7.338c0,0-0.001,0.001-0.001,0.002C2.542,7.344,2.539,7.348,2.536,7.352
		c0,0,0,0.001-0.001,0.001C2.534,7.355,2.533,7.356,2.532,7.358c0,0,0,0.001-0.001,0.001C2.53,7.361,2.529,7.363,2.528,7.365
		c0,0,0,0,0,0.001C2.524,7.37,2.522,7.374,2.519,7.378l0,0C2.516,7.383,2.513,7.387,2.511,7.392l0,0
		C2.509,7.394,2.508,7.396,2.506,7.398c0,0,0,0,0,0C2.505,7.4,2.503,7.402,2.502,7.404c0,0,0,0,0,0.001
		C2.499,7.409,2.497,7.414,2.494,7.418v0C2.492,7.42,2.491,7.422,2.49,7.424l0,0C2.485,7.431,2.481,7.438,2.477,7.444
		c0,0,0,0,0,0.001C2.473,7.451,2.469,7.458,2.464,7.464c0,0,0,0,0,0C2.463,7.466,2.462,7.468,2.46,7.47c0,0,0,0,0,0.001
		C2.458,7.476,2.455,7.48,2.452,7.484h0C2.451,7.486,2.449,7.488,2.448,7.49v0C2.443,7.498,2.439,7.504,2.436,7.51l0,0
		C2.421,7.533,2.408,7.555,2.394,7.577v0C2.388,7.586,2.383,7.594,2.377,7.604l0,0c-0.471,0.763-0.88,1.568-1.22,2.409l1.854,0.749
		c0.874-2.163,2.293-4.094,4.105-5.583L5.847,3.633L5.847,3.633z M0.303,12.884c-0.071,0.362-0.131,0.729-0.177,1.099
		c0,0.001,0,0,0,0c0,0.004-0.001,0.008-0.001,0.012l0,0c-0.001,0.008-0.002,0.016-0.003,0.024l0,0c0,0.004-0.001,0.008-0.001,0.012
		l0,0c-0.001,0.012-0.003,0.024-0.004,0.036l0,0c0,0.004,0,0.008-0.001,0.012l0,0c0,0.004,0,0.008-0.001,0.012l0,0
		c0,0.004,0,0.007-0.001,0.011c0,0,0,0,0,0.001c0,0.004,0,0.007-0.001,0.011c0,0,0,0,0,0.001c0,0.004-0.001,0.007-0.001,0.011
		c0,0,0,0.001,0,0.002c0,0.003-0.001,0.007-0.001,0.011c0,0,0,0,0,0.001c0,0.004-0.001,0.007-0.001,0.011c0,0.001,0,0.001,0,0.001
		c0,0.004-0.001,0.007-0.001,0.011c0,0,0,0,0,0.001c0,0.003-0.001,0.007-0.001,0.011c0,0,0,0.001,0,0.001
		c0,0.003-0.001,0.007-0.001,0.011l0,0.001c0,0.003,0,0.007-0.001,0.011c0,0,0,0,0,0.001c0,0.004-0.001,0.008-0.001,0.012l0,0
		c0,0.004-0.001,0.008-0.001,0.012v0c0,0.004-0.001,0.008-0.001,0.011c0,0,0,0,0,0.001c0,0.003,0,0.007-0.001,0.011
		c0,0,0,0.001,0,0.001c0,0.004-0.001,0.007-0.001,0.011c0,0,0,0.001,0,0.001c0,0.003-0.001,0.007-0.001,0.01c0,0,0,0.002,0,0.002
		c0,0.003,0,0.006-0.001,0.01c0,0,0,0.002,0,0.002c0,0.003-0.001,0.006-0.001,0.01c0,0.001,0,0.001,0,0.002
		c0,0.003-0.001,0.007-0.001,0.01c0,0.001,0,0.001,0,0.002c0,0.003,0,0.007-0.001,0.01c0,0.001,0,0.001,0,0.002
		c0,0.003-0.001,0.007-0.001,0.01c0,0,0,0.001,0,0.002c0,0.003,0,0.007-0.001,0.01c0,0,0,0.001,0,0.002
		c0,0.003-0.001,0.007-0.001,0.01v0.001c0,0.004,0,0.007-0.001,0.011c0,0,0,0.001,0,0.002c0,0.003,0,0.007-0.001,0.01
		c0,0,0,0.001,0,0.001c0,0.004,0,0.007-0.001,0.01c0,0.001,0,0.001,0,0.002c0,0.003,0,0.007-0.001,0.01c0,0,0,0.001,0,0.002
		c0,0.003,0,0.006-0.001,0.01c0,0,0,0.001,0,0.002c0,0.003-0.001,0.006-0.001,0.01c0,0.001,0,0.001,0,0.002
		c0,0.003,0,0.006-0.001,0.01c0,0.001,0,0.001,0,0.002c0,0.003-0.001,0.006-0.001,0.01c0,0,0,0.002,0,0.002
		c0,0.003,0,0.007-0.001,0.01c0,0.001,0,0.001,0,0.003c0,0.003,0,0.006-0.001,0.009c0,0.001,0,0.002,0,0.003
		c0,0.003,0,0.006,0,0.009c0,0.001,0,0.002,0,0.003c0,0.003,0,0.006-0.001,0.009c0,0.001,0,0.002,0,0.003
		c0,0.003,0,0.006-0.001,0.009c0,0.001,0,0.002,0,0.003c0,0.003,0,0.006,0,0.009c0,0.001,0,0.001,0,0.003
		c0,0.003,0,0.006-0.001,0.009c0,0.001,0,0.001,0,0.002c0,0.003,0,0.007-0.001,0.01c0,0,0,0.001,0,0.001c0,0.003,0,0.007-0.001,0.01
		c0,0,0,0.001,0,0.002c0,0.003-0.001,0.007-0.001,0.01c0,0,0,0.001,0,0.002c0,0.003,0,0.006,0,0.01c0,0,0,0.001,0,0.002
		c0,0.003,0,0.007-0.001,0.01c0,0.001,0,0.001,0,0.002c0,0.003,0,0.006-0.001,0.009c0,0.001,0,0.002,0,0.003
		c0,0.003,0,0.006-0.001,0.009c0,0.001,0,0.002,0,0.003c0,0.003,0,0.006-0.001,0.009c0,0.001,0,0.002,0,0.003
		c0,0.003-0.001,0.006-0.001,0.009c0,0.001,0,0.002,0,0.003c0,0.003,0,0.006,0,0.009c0,0.001,0,0.002,0,0.003
		c0,0.003,0,0.006,0,0.009c0,0.001,0,0.002,0,0.003c0,0.003,0,0.006,0,0.009c0,0.002,0,0.002,0,0.003c0,0.003,0,0.006,0,0.009
		c0,0.001,0,0.002,0,0.003c0,0.003,0,0.006,0,0.009c0,0.001,0,0.002,0,0.003c0,0.003,0,0.006,0,0.01c0,0.001,0,0.001,0,0.002
		c0,0.003,0,0.006,0,0.01c0,0,0,0.002,0,0.002c0,0.003,0,0.006,0,0.009c0,0.001,0,0.001,0,0.002c0,0.003,0,0.006,0,0.01
		c0,0,0,0.002,0,0.002c0,0.003,0,0.006,0,0.01c0,0.001,0,0.001,0,0.002c0,0.003,0,0.006-0.001,0.009c0,0.001,0,0.002,0,0.003
		c0,0.003,0,0.006-0.001,0.009c0,0.001,0,0.002,0,0.003c0,0.003,0,0.006-0.001,0.009c0,0.001,0,0.002,0,0.003
		c0,0.003,0,0.006-0.001,0.009c0,0.001,0,0.002,0,0.003c0,0.003,0,0.006,0,0.009c0,0.001,0,0.002,0,0.003c0,0.003,0,0.006,0,0.009
		c0,0.001,0,0.002,0,0.003c0,0.003,0,0.006,0,0.009c0,0.001,0,0.002,0,0.003c0,0.003,0,0.006-0.001,0.01c0,0,0,0.002,0,0.002
		c0,0.003,0,0.006,0,0.01c0,0.001,0,0.002,0,0.003c0,0.003,0,0.006,0,0.009c0,0.001,0,0.002,0,0.003c0,0.003,0,0.006,0,0.009
		c0,0.001,0,0.002,0,0.004c0,0.003,0,0.006-0.001,0.009c0,0.001,0,0.001,0,0.003c0,0.003,0,0.006,0,0.009c0,0.001,0,0.002,0,0.003
		c0,0.003,0,0.006,0,0.01c0,0,0,0.001,0,0.002c0,0.003,0,0.007,0,0.01c0,0.001,0,0.002,0,0.003c0,0.003,0,0.006,0,0.01
		c0,0.001,0,0.001,0,0.002c0,0.003,0,0.006-0.001,0.01c0,0,0,0.002,0,0.003c0,0.003,0,0.006,0,0.009c0,0.001,0,0.002,0,0.003
		c0,0.003,0,0.006,0,0.009c0,0.001,0,0.002,0,0.003c0,0.003,0,0.006,0,0.009c0,0.001,0,0.002,0,0.003c0,0.003,0,0.006,0,0.01
		c0,0.001,0,0.001,0,0.002c0,0.003,0,0.007,0,0.01c0,0,0,0.002,0,0.003c0,0.003,0,0.006,0,0.01c0,0.001,0,0.001,0,0.002
		c0,0.003,0,0.007,0,0.01c0,0.001,0,0.001,0,0.002c0,0.003,0,0.007,0,0.01c0,0.001,0,0.001,0,0.002c0,0.003,0,0.006,0,0.009
		c0,0.001,0,0.002,0,0.003c0,0.003,0,0.006,0,0.009c0,0.001,0,0.002,0,0.003c0,0.003,0,0.006,0,0.009c0,0,0,0.002,0,0.003
		c0,0.003,0,0.006,0,0.01c0,0.001,0,0.001,0,0.002c0,0.003,0,0.006,0,0.01c0,0.001,0,0.001,0,0.002c0,0.003,0,0.007,0,0.01
		c0,0.001,0,0.002,0,0.003c0,0.003,0,0.006,0,0.01c0,0,0,0.002,0,0.002c0,0.003,0,0.007,0,0.01c0,0.001,0,0.001,0,0.003
		c0,0.003,0,0.006,0,0.01c0,0.001,0,0.001,0,0.002c0,0.003,0,0.007,0,0.01c0,0.001,0,0.002,0,0.003c0,0.003,0,0.006,0,0.01
		c0,0,0,0.002,0,0.002c0,0.003,0,0.007,0,0.01c0,0,0,0.002,0,0.002c0,0.003,0,0.007,0,0.01c0,0.001,0,0.001,0,0.002
		c0,0.003,0,0.007,0,0.01c0,0.001,0,0.001,0,0.002c0,0.003,0,0.007,0,0.01c0,0,0,0.001,0,0.002c0,0.003,0,0.007,0,0.01
		c0,0,0,0.001,0,0.001c0,0.003,0,0.007,0,0.01c0,0,0,0.002,0,0.002c0,0.003,0,0.006,0,0.01c0,0,0,0.002,0,0.002
		c0,0.003,0,0.006,0,0.01c0,0.001,0,0.001,0,0.002c0,0.003,0,0.007,0,0.01c0,0,0,0.002,0,0.002c0,0.003,0,0.006,0,0.01
		c0,0.001,0,0.002,0,0.002c0,0.003,0,0.007,0,0.01c0,0,0,0.002,0,0.002c0,0.003,0,0.007,0,0.01c0,0.001,0,0.001,0,0.002
		c0,0.003,0,0.007,0,0.01c0,0.001,0,0.001,0,0.002c0,0.003,0,0.007,0,0.01c0,0,0,0.001,0,0.002c0,0.003,0,0.007,0,0.01
		c0,0,0,0.002,0,0.002c0,0.003,0,0.007,0,0.01c0,0.001,0,0.001,0,0.002c0,0.003,0,0.007,0,0.01c0,0.001,0,0.001,0,0.002
		c0,0.003,0,0.007,0,0.011c0,0,0,0.001,0,0.002c0,0.003,0,0.007,0,0.01c0,0,0,0.002,0,0.002c0,0.003,0,0.007,0,0.01
		c0,0.001,0,0.001,0,0.001c0,0.003,0,0.007,0,0.011c0,0,0,0.001,0,0.001c0,0.004,0,0.007,0,0.011c0,0,0,0.001,0,0.001
		c0,0.003,0,0.007,0,0.01c0,0.001,0,0.001,0,0.002c0,0.003,0,0.007,0,0.01c0,0,0,0.001,0,0.002c0,0.003,0,0.007,0,0.01
		c0,0,0,0.002,0,0.002c0,0.003,0,0.007,0,0.01c0,0,0,0.001,0,0.002c0,0.003,0,0.007,0,0.01c0,0.001,0,0.001,0,0.002
		c0,0.003,0,0.007,0,0.01c0,0,0,0.002,0,0.002c0,0.003,0,0.007,0,0.01c0,0,0,0.001,0,0.002c0,0.003,0,0.007,0,0.011
		c0,0,0,0.001,0,0.001c0,0.003,0,0.007,0,0.011c0,0.001,0,0.001,0,0.002c0,0.003,0,0.007,0,0.011c0,0,0,0.001,0,0.001
		c0,0.003,0,0.007,0,0.011c0,0,0,0,0,0.001c0,0.004,0,0.008,0,0.011v0.001c0,0.003,0,0.007,0,0.011c0,0,0,0.001,0,0.001
		c0,0.004,0,0.007,0,0.011c0,0,0,0,0,0.001c0,0.003,0,0.007,0,0.011c0,0.001,0,0,0,0.001c0,0.004,0,0.007,0,0.011
		c0,0.001,0,0.001,0,0.002c0,0.003,0,0.007,0,0.01c0,0.001,0,0.002,0,0.002c0,0.003,0,0.007,0,0.01c0,0,0,0.002,0,0.002
		c0,0.003,0,0.007,0,0.01c0,0.001,0,0.001,0,0.002c0,0.003,0,0.007,0,0.011c0,0,0,0.001,0,0.002c0,0.003,0,0.007,0,0.01
		c0,0,0,0.001,0,0.002c0,0.004,0,0.007,0,0.011c0,0,0,0.001,0,0.002c0,0.003,0,0.007,0,0.011c0,0,0,0.001,0,0.001
		c0,0.004,0,0.007,0,0.011c0,0,0,0,0,0.001c0,0.004,0,0.008,0,0.011c0,0,0,0.001,0,0.001c0,0.004,0,0.008,0,0.011v0.001
		c0,0.003,0,0.007,0,0.011v0.001c0,0.003,0,0.007,0,0.011c0,0,0,0,0,0.001c0,0.004,0,0.008,0,0.011c0,0,0,0.001,0,0.001
		c0,0.004,0,0.007,0,0.011v0.001c0,0.003,0,0.007,0,0.011c0,0,0,0.001,0,0.002c0,0.003,0,0.007,0,0.011c0,0,0,0.001,0,0.001
		c0,0.004,0,0.007,0,0.011C0,15.9,0,15.9,0,15.901c0,0.004,0,0.007,0,0.011c0,0,0,0.001,0,0.002c0,0.003,0,0.007,0,0.011
		c0,0,0,0.001,0,0.002c0,0.003,0,0.007,0,0.011c0,0,0,0.001,0,0.001c0,0.004,0,0.007,0,0.011c0,0,0,0.001,0,0.002
		c0,0.003,0,0.007,0,0.011v0.001c0,0.004,0,0.008,0,0.011c0,0,0,0,0,0.001c0,0.004,0,0.008,0,0.012c0,0,0,0,0,0
		C0,15.992,0,15.996,0,16l0,0c0,0.003,0,0.006,0,0.009c0,0.001,0,0.001,0,0.002c0,0.003,0,0.006,0,0.009v0c0,0.003,0,0.005,0,0.008
		c0,0.001,0,0.001,0,0.002c0,0.003,0,0.006,0,0.009c0,0,0,0,0,0.001c0,0.002,0,0.005,0,0.008c0,0,0,0.001,0,0.002
		c0,0.003,0,0.006,0,0.009c0,0,0,0,0,0.001c0,0.002,0,0.005,0,0.007c0,0.001,0,0.001,0,0.002c0,0.003,0,0.006,0,0.008
		c0,0.001,0,0.001,0,0.001c0,0.003,0,0.005,0,0.008c0,0,0,0.001,0,0.002c0,0.003,0,0.006,0,0.008c0,0.001,0,0.001,0,0.001
		c0,0.002,0,0.005,0,0.008c0,0,0,0.001,0,0.002c0,0.003,0,0.006,0,0.008c0,0,0,0.001,0,0.001c0,0.002,0,0.005,0,0.008
		c0,0,0,0.001,0,0.002c0,0.003,0,0.005,0,0.008c0,0,0,0.001,0,0.001c0,0.002,0,0.005,0,0.007c0,0,0,0.002,0,0.002
		c0,0.003,0,0.005,0,0.008c0,0.001,0,0.001,0,0.002c0,0.002,0,0.005,0,0.007c0,0,0,0.001,0,0.002c0,0.002,0,0.005,0,0.008
		c0,0,0,0.001,0,0.001c0,0.003,0,0.005,0,0.008c0,0,0,0.001,0,0.001c0,0.003,0,0.006,0,0.009c0,0,0,0.001,0,0.001
		c0,0.003,0,0.005,0,0.008c0,0,0,0.001,0,0.001c0,0.003,0,0.006,0,0.009v0.001c0,0.002,0,0.005,0,0.008c0,0,0,0.001,0,0.001
		c0,0.003,0,0.006,0,0.009c0,0,0,0.001,0,0.001c0,0.002,0,0.005,0,0.007c0,0,0,0.001,0,0.002c0,0.003,0,0.006,0,0.008
		c0,0,0,0.001,0,0.002c0,0.002,0,0.005,0,0.007c0,0.001,0,0.001,0,0.002c0,0.003,0,0.005,0,0.008c0,0,0,0.002,0,0.002
		c0,0.002,0,0.004,0,0.007c0,0.001,0,0.001,0,0.002c0,0.002,0,0.005,0,0.008c0,0.001,0,0.002,0,0.003c0,0.002,0,0.004,0,0.007
		c0,0,0,0.001,0,0.001c0,0.003,0,0.006,0,0.008c0,0.001,0,0.002,0,0.003c0,0.002,0,0.004,0,0.006c0,0.001,0,0.001,0,0.002
		c0,0.003,0,0.006,0,0.008c0,0,0,0.002,0,0.002c0,0.002,0,0.005,0,0.007c0,0,0,0.001,0,0.001c0,0.003,0,0.005,0,0.008
		c0,0,0,0.002,0,0.002c0,0.002,0,0.005,0,0.008c0,0,0,0,0,0c0,0.003,0,0.006,0,0.009c0,0,0,0.001,0,0.002c0,0.003,0,0.005,0,0.008
		c0,0,0,0,0,0c0,0.003,0,0.006,0,0.009c0,0,0,0.001,0,0.002c0,0.006,0,0.012,0,0.018c0,0.001,0,0.001,0,0.001
		c0,0.006,0,0.012,0,0.018c0,0,0,0.001,0,0.001c0,0.006,0,0.012,0,0.018c0,0.001,0,0.001,0,0.002c0,0.006,0,0.012,0,0.018
		c0,0.001,0,0.001,0,0.002c0,0.006,0,0.012,0,0.018c0,0,0,0.001,0,0.001c0,0.006,0,0.012,0,0.018c0,0,0,0.001,0,0.001
		c0,0.006,0,0.012,0,0.018c0,0,0,0,0,0.001c0,0.003,0,0.006,0,0.009c0,0,0,0,0,0c0,0.002,0,0.005,0,0.008c0,0,0,0.001,0,0.002
		c0,0.003,0,0.006,0,0.008c0,0,0,0,0,0.001c0,0.003,0,0.005,0,0.008c0,0,0,0.001,0,0.001c0,0.003,0,0.006,0,0.009c0,0,0,0,0,0.001
		c0,0.002,0,0.005,0,0.008c0,0,0,0.001,0,0.002c0,0.003,0,0.006,0,0.009v0c0,0.003,0,0.005,0,0.008c0,0,0,0.001,0,0.001
		c0,0.003,0,0.006,0,0.009v0c0,0.003,0,0.005,0,0.008c0,0,0,0.001,0,0.001c0,0.003,0,0.006,0,0.009v0.001c0,0.003,0,0.005,0,0.008
		c0,0,0,0.001,0,0.002c0,0.003,0,0.006,0,0.009v0.001c0,0.002,0,0.005,0,0.008c0,0,0,0.001,0,0.001c0,0.003,0,0.006,0,0.009v0.001
		c0,0.003,0,0.005,0,0.008c0,0,0,0.001,0,0.001c0,0.003,0,0.006,0,0.009c0,0,0,0,0,0.001c0,0.003,0,0.005,0,0.008v0.001
		c0,0.003,0,0.006,0,0.009c0,0,0,0.001,0,0.001c0,0.003,0,0.006,0,0.008v0c0,0.003,0,0.006,0,0.009c0,0,0,0,0,0.001
		c0,0.003,0,0.006,0,0.009v0c0,0.003,0,0.006,0,0.009c0,0,0,0,0,0c0,0.006,0,0.013,0.001,0.019c0,0,0,0,0,0
		c0,0.006,0,0.012,0.001,0.019c0,0.001,0,0,0,0c0,0.006,0,0.013,0.001,0.019c0,0,0,0,0,0c0,0.013,0.001,0.025,0.002,0.038v0
		c0,0.006,0,0.012,0.001,0.019v0.001c0,0.006,0,0.012,0.001,0.019v0c0,0.006,0.001,0.012,0.001,0.019v0.001
		c0,0.006,0.001,0.012,0.001,0.019v0c0,0.006,0,0.013,0.001,0.019v0c0,0.013,0.001,0.026,0.002,0.039h0c0,0.006,0,0.013,0.001,0.019
		l0,0c0.006,0.106,0.014,0.211,0.022,0.317l0,0c0.098,1.2,0.328,2.363,0.676,3.474l1.908-0.598C2.215,18.842,2,17.431,2,16
		c0-0.918,0.089-1.837,0.266-2.729L0.303,12.884L0.303,12.884z M3.653,22.606l-1.763,0.945C2.356,24.42,2.9,25.24,3.512,26.004
		c0,0,0-0.001,0,0c0.026,0.032,0.052,0.064,0.079,0.097l0,0c0.04,0.049,0.079,0.097,0.119,0.145l0,0
		c0.017,0.021,0.033,0.04,0.05,0.06l0,0c0.01,0.012,0.02,0.023,0.03,0.035c0,0.001,0,0.001,0,0.001
		c0.002,0.002,0.003,0.004,0.005,0.006l0,0c0.005,0.006,0.01,0.012,0.015,0.018l0,0c0.005,0.006,0.01,0.012,0.015,0.018v0.001
		c0.005,0.006,0.01,0.012,0.015,0.018l0,0c0.002,0.002,0.003,0.004,0.005,0.006l0,0c0.005,0.006,0.01,0.012,0.015,0.018c0,0,0,0,0,0
		c0.003,0.004,0.007,0.008,0.01,0.012l0,0c0.001,0.002,0.003,0.004,0.004,0.006h0.001c0.001,0.002,0.003,0.004,0.004,0.006h0
		c0.003,0.004,0.006,0.008,0.01,0.012c0,0,0,0,0,0c0.006,0.008,0.013,0.016,0.02,0.023c0,0,0,0,0,0
		c0.005,0.007,0.01,0.012,0.015,0.018l0,0.001c0.005,0.006,0.01,0.011,0.015,0.017v0.001c0.012,0.014,0.024,0.026,0.036,0.04v0.001
		c0.005,0.006,0.01,0.011,0.015,0.017c0,0.001,0,0,0,0.001c0.001,0.002,0.003,0.004,0.005,0.005v0.001
		c0.003,0.004,0.007,0.007,0.01,0.011l0,0.001c0.001,0.002,0.003,0.003,0.005,0.005v0.001c0.005,0.006,0.01,0.011,0.016,0.017l0,0
		c0.001,0.002,0.003,0.004,0.005,0.006l0,0c0.003,0.004,0.007,0.008,0.01,0.012h0c0.001,0.002,0.003,0.004,0.005,0.006l0,0
		c0.005,0.006,0.01,0.012,0.016,0.018l0,0c0.005,0.006,0.01,0.012,0.016,0.018l0,0c0.005,0.006,0.01,0.012,0.016,0.018c0,0,0,0,0,0
		c0.002,0.002,0.003,0.004,0.005,0.006h0c0.003,0.004,0.007,0.008,0.01,0.012l0,0c0.001,0.002,0.003,0.003,0.005,0.005l0,0.001
		c0.005,0.006,0.01,0.011,0.015,0.017l0,0.001c0.018,0.019,0.035,0.038,0.052,0.057l0,0c0.005,0.006,0.01,0.012,0.016,0.018
		c0,0,0,0,0,0c0.002,0.002,0.003,0.004,0.005,0.006h0c0.005,0.006,0.01,0.012,0.016,0.017v0.001
		c0.007,0.007,0.014,0.015,0.021,0.022l0,0c0.028,0.03,0.057,0.061,0.085,0.091v0.001c0.868,0.925,1.844,1.746,2.909,2.444
		l1.097-1.673C6.377,26.434,4.758,24.667,3.653,22.606L3.653,22.606z M10.651,28.942l-0.765,1.849h0
		c0.003,0.001,0.007,0.003,0.011,0.004l0,0c0.004,0.002,0.007,0.003,0.011,0.005c0,0,0,0,0,0c1.465,0.604,3.039,0.996,4.685,1.14h0
		c0.004,0,0.008,0,0.012,0.001l0,0c0.008,0,0.017,0.001,0.025,0.002l0,0c0.004,0,0.008,0.001,0.012,0.001l0,0
		c0.017,0.001,0.033,0.003,0.05,0.004l0,0c0.033,0.003,0.066,0.006,0.1,0.008l0,0c0.012,0.001,0.024,0.002,0.037,0.003l0,0
		c0.004,0,0.008,0.001,0.012,0.001h0c0.004,0,0.008,0,0.012,0.001c0,0,0,0,0,0c0.004,0,0.008,0,0.012,0.001h0
		c0.004,0,0.008,0,0.012,0.001h0c0.004,0,0.008,0,0.012,0h0.001c0.004,0.001,0.007,0.001,0.011,0.001h0.001
		c0.004,0.001,0.008,0.001,0.012,0.001c0,0,0,0,0.001,0c0.004,0,0.008,0.001,0.012,0.001c0,0,0,0,0,0
		c0.004,0,0.008,0.001,0.012,0.001c0,0,0,0,0.001,0c0.004,0,0.008,0,0.012,0.001h0c0.004,0,0.008,0,0.012,0h0
		c0.004,0.001,0.008,0.001,0.012,0.001h0c0.004,0.001,0.008,0.001,0.012,0.001h0c0.004,0,0.008,0.001,0.012,0.001l0,0
		c0.029,0.002,0.058,0.003,0.087,0.005c0,0,0,0,0,0c0.004,0,0.008,0.001,0.012,0.001h0c0.004,0,0.008,0,0.012,0l0.001,0.001
		c0.004,0,0.008,0,0.012,0h0c0.004,0,0.008,0.001,0.012,0.001h0c0.004,0,0.008,0,0.012,0.001c0,0,0,0,0.001,0
		c0.004,0,0.008,0,0.012,0c0,0,0,0,0.001,0c0.004,0,0.007,0.001,0.011,0.001c0,0,0,0,0.001,0c0.004,0,0.008,0,0.012,0
		c0,0.001,0.001,0.001,0.001,0.001c0.003,0,0.007,0,0.011,0h0.001c0.004,0,0.007,0.001,0.011,0.001h0.001c0.004,0,0.008,0,0.012,0h0
		c0.004,0.001,0.008,0.001,0.012,0.001c0,0,0,0,0.001,0c0.004,0,0.008,0,0.012,0.001c0,0,0,0,0,0c0.004,0,0.008,0,0.012,0
		c0,0,0,0,0,0c0.004,0,0.008,0.001,0.012,0.001h0c0.004,0,0.008,0,0.012,0h0.001c0.004,0.001,0.008,0.001,0.012,0.001h0
		c0.004,0,0.008,0,0.012,0c0,0,0,0,0,0c0.004,0.001,0.008,0.001,0.012,0.001c0,0,0,0,0,0c0.004,0,0.008,0,0.012,0h0
		c0.017,0.001,0.033,0.002,0.05,0.002c0,0,0,0,0,0c0.004,0.001,0.008,0.001,0.012,0.001c0,0,0,0,0.001,0c0.004,0,0.008,0,0.012,0
		c0,0,0,0,0.001,0c0.004,0.001,0.008,0.001,0.012,0.001h0c0.004,0,0.008,0,0.012,0h0.001c0.004,0,0.008,0.001,0.012,0.001
		c0,0,0,0,0.001,0c0.004,0,0.008,0,0.012,0c0,0,0,0,0.001,0c0.004,0,0.008,0,0.012,0.001c0,0,0,0,0.001,0c0.003,0,0.007,0,0.011,0
		c0,0,0.001,0,0.001,0c0.004,0,0.007,0,0.011,0c0,0,0.001,0,0.001,0c0.003,0.001,0.007,0.001,0.011,0.001c0,0,0.001,0,0.001,0
		c0.003,0,0.007,0,0.011,0c0,0,0,0,0.001,0c0.004,0,0.007,0,0.011,0c0,0,0.001,0.001,0.002,0.001c0.003,0,0.007,0,0.011,0
		c0,0,0.001,0,0.001,0c0.004,0,0.007,0,0.011,0c0,0,0.001,0,0.001,0c0.004,0,0.007,0,0.011,0.001c0,0,0.001,0,0.001,0
		c0.004,0,0.007,0,0.011,0c0,0,0.001,0,0.001,0c0.004,0,0.007,0,0.011,0h0.001c0.004,0,0.008,0,0.012,0c0,0,0.001,0,0.001,0.001
		c0.003,0,0.007,0,0.011,0c0,0,0,0,0.001,0c0.004,0,0.008,0,0.012,0c0,0,0,0,0.001,0c0.004,0,0.008,0,0.012,0c0,0,0,0,0,0
		c0.004,0,0.008,0.001,0.012,0.001h0c0.004,0,0.008,0,0.012,0h0c0.004,0,0.008,0,0.012,0h0c0.004,0,0.008,0,0.012,0c0,0,0,0,0.001,0
		c0.004,0,0.008,0,0.012,0.001c0,0,0,0,0.001,0c0.004,0,0.008,0,0.011,0c0,0,0.001,0,0.001,0c0.004,0,0.008,0,0.011,0
		c0,0,0.001,0,0.002,0c0.003,0,0.007,0,0.011,0c0,0,0.001,0,0.001,0c0.004,0,0.008,0,0.011,0c0,0,0.001,0,0.001,0
		c0.004,0,0.008,0,0.011,0.001c0,0,0.001,0,0.001,0c0.004,0,0.007,0,0.011,0c0,0,0.001,0,0.001,0c0.004,0,0.007,0,0.011,0
		c0,0,0.001,0,0.001,0c0.004,0,0.007,0,0.011,0c0,0,0.001,0,0.001,0c0.004,0,0.007,0,0.011,0c0,0,0.001,0,0.001,0
		c0.004,0,0.007,0,0.011,0c0.001,0,0,0,0.002,0c0.003,0,0.007,0,0.011,0c0,0,0.001,0,0.001,0c0.004,0,0.007,0,0.011,0
		c0,0,0.001,0.001,0.001,0.001c0.004,0,0.007,0,0.011,0c0,0,0.001,0,0.001,0c0.004,0,0.007,0,0.011,0c0,0,0.001,0,0.001,0
		c0.004,0,0.008,0,0.011,0c0,0,0.001,0,0.001,0c0.004,0,0.007,0,0.011,0c0,0,0.001,0,0.001,0c0.004,0,0.007,0,0.011,0h0.001
		c0.004,0,0.007,0,0.011,0c0,0,0.001,0,0.001,0c0.004,0,0.008,0,0.011,0c0,0,0.001,0,0.001,0c0.004,0,0.008,0,0.012,0c0,0,0,0,0,0
		c0.004,0,0.008,0,0.012,0h0c0.004,0,0.008,0,0.012,0c0.002,0,0.004,0,0.007,0c0,0,0,0,0.001,0c0.001,0,0.003,0,0.005,0
		c0.001,0,0.002,0,0.003,0c0.001,0,0.002,0,0.004,0c0.001,0,0.002,0,0.003,0s0.002,0,0.004,0c0.001,0,0.002,0,0.003,0
		s0.002,0,0.003,0c0,0,0.002,0,0.003,0c0.001,0,0.002,0,0.004,0c0.001,0,0.002,0,0.003,0c0.001,0,0.002,0,0.004,0
		c0.001,0,0.001,0,0.002,0c0.001,0,0.003,0,0.004,0s0.002,0,0.003,0c0.001,0,0.002,0,0.004,0c0.001,0,0.001,0,0.003,0
		c0.001,0,0.002,0,0.004,0c0.001,0,0.001,0,0.002,0c0.001,0,0.003,0,0.004,0c0,0,0.002,0,0.002,0c0.001,0,0.002,0,0.004,0
		c0,0,0.002,0,0.003,0c0.001,0,0.002,0,0.004,0c0,0,0.002,0,0.002,0c0.001,0,0.003,0,0.004,0c0,0,0.002,0,0.002,0
		c0.001,0,0.003,0,0.004,0c0.001,0,0.001,0,0.002,0c0.001,0,0.003,0,0.004,0s0.001,0,0.002,0c0.002,0,0.004,0,0.005,0
		c0,0,0.001,0,0.001,0c0.002,0,0.004,0,0.006,0h0c0.002,0,0.004-0.001,0.007-0.001l0,0c0.002,0,0.004,0,0.006,0c0,0,0.001,0,0.002,0
		c0.001,0,0.003,0,0.005,0c0.001,0,0,0,0.002,0s0.003,0,0.004,0c0.001,0,0.001,0,0.002,0c0.001,0,0.003,0,0.004,0
		c0,0,0.002,0,0.002,0c0.001,0,0.002,0,0.004,0c0.001,0,0.002,0,0.003,0c0.001,0,0.003,0,0.004,0s0.002,0,0.003,0s0.002,0,0.004,0
		c0.001,0,0.001,0,0.003,0c0.001,0,0.002,0,0.004,0c0.001,0,0.001,0,0.002,0c0.001,0,0.002,0,0.004,0c0.001,0,0.002,0,0.003,0
		s0.002,0,0.004,0c0.001,0,0.001,0,0.002,0c0.001,0,0.003,0,0.004,0c0,0,0.002,0,0.002,0c0.001,0,0.003,0,0.004,0
		c0,0,0.001,0,0.002,0c0.001,0,0.003,0,0.004,0c0.001,0,0.002,0,0.003-0.001c0.001,0,0.003,0,0.004,0c0.001,0,0.001,0,0.002,0
		c0.001,0,0.003,0,0.005,0c0,0,0.001,0,0.001,0c0.009,0,0.018,0,0.027,0c0,0,0,0,0.001,0c0.002,0,0.004,0,0.006,0
		c0.001,0,0.001,0,0.002,0c0.001,0,0.003,0,0.004,0c0.001,0,0.001,0,0.003,0s0.002,0,0.004,0c0,0,0.001,0,0.002,0
		c0.001-0.001,0.003-0.001,0.005-0.001c0,0,0.002,0,0.002,0c0.001,0,0.003,0,0.004,0s0.002,0,0.002,0c0.001,0,0.003,0,0.004,0
		c0.001,0,0.001,0,0.002,0c0.001,0,0.003,0,0.004,0c0.001,0,0.001,0,0.002,0c0.001,0,0.003,0,0.005,0c0.001,0,0.001,0,0.002,0
		c0.001,0,0.003,0,0.004,0c0.001,0,0.001,0,0.002,0c0.001,0,0.002,0,0.004,0c0.001,0,0.002,0,0.003,0c0.001,0,0.003,0,0.004,0
		c0,0,0.001,0,0.002-0.001c0.001,0,0.003,0,0.005,0c0,0,0.001,0,0.002,0c0.002,0,0.004,0,0.006,0h0c0.002,0,0.004,0,0.005,0
		c0.001,0,0.001,0,0.001,0c0.009,0,0.018,0,0.027-0.001c0,0,0,0,0.001,0c0.004,0,0.008,0,0.013,0h0c0.002,0,0.004,0,0.006,0h0
		c0.002,0,0.004,0,0.006,0c0,0,0,0,0.001,0c0.002,0,0.004,0,0.006,0c0.001,0,0,0,0,0c0.002,0,0.004-0.001,0.006-0.001
		c0.001,0,0.001,0,0.001,0c0.002,0,0.004,0,0.005,0h0.001c0.002,0,0.003,0,0.005,0c0.001,0,0.001,0,0.002,0c0.002,0,0.003,0,0.005,0
		c0,0,0.001,0,0.002,0c0.001,0,0.003,0,0.005,0c0.001,0,0.001,0,0.001,0c0.002,0,0.004,0,0.006-0.001c0,0,0,0,0.001,0
		c0.002,0,0.004,0,0.006,0h0c0.023,0,0.045-0.001,0.068-0.002l0,0c0.002,0,0.004,0,0.007,0c0,0,0,0,0,0c0.002,0,0.004,0,0.006,0
		c0,0,0,0,0.001,0c0.002,0,0.004,0,0.005-0.001h0.001c0.002,0,0.004,0,0.006,0h0c0.393-0.014,0.782-0.041,1.167-0.082l-0.214-1.988
		C17.014,29.973,16.505,30,16,30C14.146,30,12.347,29.645,10.651,28.942L10.651,28.942z M25.998,25.8
		c-1.642,1.676-3.688,2.919-5.919,3.598l0.581,1.913c0.912-0.277,1.789-0.634,2.624-1.061l0,0c0.072-0.037,0.144-0.074,0.215-0.112
		l0,0c0.007-0.004,0.014-0.008,0.021-0.012l0,0c0.007-0.004,0.014-0.007,0.021-0.011h0.001c0.016-0.009,0.031-0.018,0.047-0.026
		c0.001,0,0.001,0,0.001,0c0.002-0.001,0.003-0.002,0.005-0.003l0,0c0.008-0.004,0.014-0.007,0.021-0.011
		c0.001,0,0.001-0.001,0.001-0.001c0.008-0.004,0.014-0.007,0.021-0.011c0,0,0.001,0,0.001-0.001
		c0.002-0.001,0.003-0.001,0.005-0.002c0,0,0,0,0.001-0.001c0.005-0.003,0.01-0.005,0.015-0.008l0,0
		c0.002-0.001,0.004-0.002,0.006-0.003l0,0c0.007-0.004,0.014-0.008,0.021-0.012c0.001,0,0,0,0.001,0
		c0.001-0.001,0.003-0.002,0.005-0.003l0,0c0.005-0.003,0.01-0.006,0.016-0.009c0,0,0,0,0.001,0
		c0.001-0.001,0.003-0.002,0.004-0.003c0.001,0,0.001,0,0.002-0.001c0.007-0.003,0.013-0.007,0.02-0.011h0.001
		c0.007-0.004,0.013-0.008,0.02-0.011c0-0.001,0.001-0.001,0.001-0.001c0.002-0.001,0.004-0.002,0.005-0.003h0.001
		c0.005-0.003,0.01-0.006,0.015-0.009h0.001c0.002-0.001,0.003-0.002,0.005-0.003l0,0c0.006-0.003,0.01-0.006,0.016-0.009l0,0
		c0.002-0.001,0.004-0.002,0.005-0.003h0.001c0.002-0.001,0.003-0.002,0.005-0.003c0,0,0,0,0.001,0
		c0.005-0.003,0.01-0.006,0.015-0.009l0,0c0.002-0.001,0.004-0.002,0.005-0.003c0.001,0,0.001,0,0.001,0
		c0.007-0.004,0.013-0.008,0.021-0.012c0,0,0,0,0.001-0.001c0.007-0.004,0.013-0.007,0.02-0.011c0.001,0,0.001,0,0.001-0.001
		c0.002-0.001,0.003-0.001,0.005-0.002c0,0,0-0.001,0.001-0.001c0.007-0.004,0.013-0.008,0.021-0.012l0,0
		c0.007-0.004,0.013-0.008,0.021-0.012l0,0c0.002-0.001,0.003-0.002,0.005-0.003c0.001,0,0.001,0,0.002-0.001
		c0.004-0.002,0.009-0.005,0.014-0.008h0.001c0.001-0.001,0.003-0.002,0.004-0.003c0.001,0,0.001,0,0.002-0.001
		c0.005-0.003,0.01-0.006,0.015-0.008c0,0,0,0,0-0.001c0.001,0,0.003-0.001,0.004-0.002c0.001,0,0.002-0.001,0.002-0.001
		c0.002-0.001,0.003-0.002,0.004-0.002c0.001-0.001,0.001-0.001,0.002-0.001c0.004-0.003,0.009-0.006,0.013-0.008
		c0.001-0.001,0.002-0.001,0.002-0.001c0.002-0.001,0.003-0.002,0.005-0.003h0.001c0.004-0.003,0.01-0.006,0.014-0.009
		c0.001,0,0.001,0,0.002-0.001s0.002-0.001,0.004-0.002l0.001-0.001c0.002-0.001,0.003-0.001,0.005-0.002c0-0.001,0-0.001,0-0.001
		c0.006-0.003,0.01-0.005,0.015-0.009c0.001,0,0.001,0,0.001,0c0.002-0.001,0.003-0.002,0.005-0.003h0.001
		c0.005-0.003,0.01-0.006,0.015-0.009l0,0c0.002-0.001,0.003-0.002,0.005-0.003c0.001,0,0.001,0,0.001-0.001
		c0.007-0.004,0.014-0.008,0.02-0.011c0.001-0.001,0.001-0.001,0.002-0.001c0.001-0.001,0.002-0.002,0.004-0.003h0.001
		c0.005-0.003,0.01-0.006,0.015-0.009c0,0,0,0,0-0.001c0.002-0.001,0.004-0.001,0.006-0.002v-0.001
		c0.005-0.003,0.01-0.006,0.015-0.009h0.001c0.001-0.001,0.003-0.002,0.004-0.003c0.001,0,0.001,0,0.002-0.001
		c0.001,0,0.002-0.001,0.004-0.002c0,0,0.001-0.001,0.002-0.001c0.004-0.003,0.009-0.006,0.013-0.008
		c0.001,0,0.001-0.001,0.002-0.001c0.001-0.001,0.002-0.001,0.004-0.002c0.001-0.001,0.001-0.001,0.002-0.001
		c0.004-0.003,0.009-0.006,0.014-0.009c0,0,0,0,0.001,0c0.001-0.001,0.002-0.002,0.004-0.003c0,0,0.001-0.001,0.002-0.001
		c0.001-0.001,0.003-0.002,0.004-0.003h0.001c0.005-0.003,0.009-0.006,0.014-0.009c0.001,0,0.001,0,0.002-0.001
		c0.001,0,0.003-0.001,0.004-0.002l0.001-0.001c0.005-0.003,0.009-0.005,0.014-0.008c0.001-0.001,0.001-0.001,0.002-0.001
		c0.001-0.001,0.002-0.002,0.004-0.003h0.001c0.002-0.001,0.003-0.002,0.005-0.003c0,0,0,0,0-0.001
		c0.004-0.001,0.006-0.003,0.009-0.005c0.001,0,0.001,0,0.002-0.001s0.002-0.001,0.004-0.002l0.001-0.001
		c0.002-0.001,0.003-0.002,0.005-0.003h0.001c0.004-0.003,0.009-0.006,0.014-0.009c0,0,0.001,0,0.001-0.001
		c0.002-0.001,0.003-0.001,0.005-0.002c0-0.001,0.001-0.001,0.001-0.001c0.004-0.003,0.009-0.006,0.013-0.008
		c0.001-0.001,0.002-0.001,0.002-0.001c0.002-0.001,0.003-0.002,0.004-0.003c0.001,0,0.002-0.001,0.002-0.001
		c0.002-0.001,0.003-0.002,0.004-0.002c0.001-0.001,0.001-0.001,0.002-0.001c0.004-0.003,0.009-0.006,0.013-0.009
		c0.001,0,0.001,0,0.002-0.001c0.002-0.001,0.002-0.001,0.004-0.002c0.001,0,0.001-0.001,0.002-0.001
		c0.004-0.003,0.009-0.006,0.014-0.009c0,0,0,0,0.001,0c0.001-0.001,0.002-0.002,0.004-0.003c0.001,0,0.001-0.001,0.002-0.001
		c0.001-0.001,0.002-0.002,0.004-0.002c0-0.001,0.001-0.001,0.001-0.001c0.005-0.003,0.01-0.006,0.014-0.009
		c0.001,0,0.001,0,0.001-0.001c0.002-0.001,0.003-0.001,0.004-0.002s0.002-0.001,0.003-0.001c0.004-0.003,0.008-0.006,0.013-0.008
		c0-0.001,0.001-0.001,0.001-0.001c0.002-0.001,0.003-0.002,0.004-0.003c0.001,0,0.002-0.001,0.003-0.001
		c0.001-0.001,0.002-0.002,0.003-0.003c0.001,0,0.001,0,0.001,0c0.003-0.002,0.006-0.004,0.009-0.006h0.001
		c0.001-0.001,0.003-0.002,0.004-0.003c0.001,0,0.001-0.001,0.002-0.001c0.001-0.001,0.003-0.002,0.004-0.002
		c0.001-0.001,0.001-0.001,0.001-0.001c0.005-0.003,0.01-0.006,0.014-0.009c0.001,0,0.001,0,0.002-0.001
		c0.002-0.001,0.002-0.001,0.004-0.002c0-0.001,0.001-0.001,0.001-0.001c0.004-0.003,0.009-0.006,0.013-0.008
		c0.001-0.001,0.002-0.001,0.003-0.002s0.002-0.001,0.003-0.002c0.001,0,0.002-0.001,0.003-0.001
		c0.001-0.001,0.002-0.002,0.003-0.003c0.001,0,0.002-0.001,0.003-0.001c0.001-0.001,0.003-0.003,0.005-0.003
		c0.001-0.001,0.002-0.002,0.004-0.003c0,0,0.001-0.001,0.002-0.002c0.001,0,0.002-0.001,0.003-0.001
		c0.001-0.001,0.003-0.002,0.004-0.002c0.001-0.001,0.002-0.002,0.002-0.002c0.002-0.001,0.002-0.001,0.004-0.002
		c0-0.001,0.001-0.001,0.002-0.002c0.002-0.001,0.004-0.002,0.007-0.004c0,0,0.001-0.001,0.002-0.001
		c0.001-0.001,0.002-0.002,0.003-0.002c0.001-0.001,0.002-0.001,0.003-0.002s0.002-0.001,0.003-0.002s0.002-0.001,0.003-0.002
		c0.002-0.001,0.004-0.002,0.006-0.004c0.001,0,0.002-0.001,0.002-0.001c0.002-0.001,0.003-0.002,0.004-0.002
		c0.001-0.001,0.002-0.001,0.002-0.002c0.002-0.001,0.003-0.001,0.004-0.002s0.001-0.001,0.002-0.002
		c0.001,0,0.003-0.001,0.004-0.002l0,0c0.003-0.002,0.006-0.004,0.009-0.006c0.001,0,0.001,0,0.002-0.001s0.002-0.001,0.004-0.002
		c0-0.001,0.001-0.001,0.002-0.002c0.001,0,0.002-0.001,0.003-0.002c0.001,0,0.002-0.001,0.003-0.002
		c0.002-0.001,0.004-0.002,0.006-0.003c0.001-0.001,0.002-0.001,0.003-0.002s0.002-0.001,0.003-0.002s0.002-0.001,0.003-0.002
		c0,0,0.002-0.001,0.003-0.002c0.001,0,0.002-0.001,0.003-0.002s0.003-0.002,0.005-0.003c0.001-0.001,0.002-0.001,0.003-0.002
		s0.002-0.001,0.003-0.002s0.002-0.001,0.003-0.002c0.001,0,0.002-0.001,0.003-0.002c0.001,0,0.002-0.001,0.003-0.002
		c0.002,0,0.002-0.001,0.003-0.002c0.002-0.001,0.004-0.002,0.006-0.003c0.001-0.001,0.001-0.001,0.002-0.002
		c0.001,0,0.003-0.001,0.004-0.002c0.001,0,0.002-0.001,0.003-0.002c0.001,0,0.002-0.001,0.003-0.002
		c0.001,0,0.002-0.001,0.003-0.002c0.001,0,0.002-0.001,0.003-0.002s0.003-0.001,0.004-0.002s0.003-0.002,0.004-0.003
		s0.002-0.001,0.003-0.002c0.001,0,0.002-0.001,0.003-0.002s0.002-0.001,0.003-0.002c0.001,0,0.002-0.001,0.003-0.002
		c0.001,0,0.002-0.001,0.003-0.002c0.001,0,0.002-0.001,0.003-0.001c0.002-0.002,0.004-0.003,0.006-0.004
		c0.001-0.001,0.002-0.001,0.003-0.002c0,0,0.002-0.001,0.003-0.002s0.001-0.001,0.002-0.002c0.002-0.001,0.002-0.001,0.004-0.002
		c0.001-0.001,0.002-0.001,0.003-0.002s0.003-0.002,0.004-0.002c0.001-0.001,0.003-0.002,0.004-0.003s0.002-0.001,0.003-0.002
		s0.002-0.001,0.003-0.002s0.002-0.001,0.003-0.002s0.002-0.001,0.003-0.002s0.002-0.001,0.003-0.002
		c0.002-0.001,0.004-0.002,0.005-0.003s0.003-0.002,0.003-0.002c0.001-0.001,0.002-0.001,0.003-0.002s0.003-0.002,0.004-0.002
		c0-0.001,0.001-0.001,0.002-0.002c0.002-0.001,0.002-0.001,0.003-0.002c0.002-0.001,0.004-0.002,0.005-0.003
		s0.002-0.002,0.003-0.002c0.001-0.001,0.002-0.001,0.004-0.002c0.001-0.001,0.002-0.002,0.003-0.002
		c0.001-0.001,0.002-0.002,0.002-0.002c0.002-0.001,0.003-0.001,0.004-0.002s0.002-0.002,0.003-0.002
		c0.001-0.001,0.002-0.001,0.003-0.002s0.003-0.002,0.005-0.004c0.001,0,0.002-0.001,0.003-0.002c0.001,0,0.002-0.001,0.003-0.001
		c0.001-0.001,0.002-0.002,0.003-0.003c0.001,0,0.002-0.001,0.003-0.001c0.001-0.001,0.002-0.002,0.003-0.002
		c0.002-0.001,0.003-0.002,0.005-0.003c0.001-0.001,0.002-0.002,0.003-0.003c0.001,0,0.002-0.001,0.003-0.002
		c0.001,0,0.002-0.001,0.003-0.002c0.001,0,0.002-0.001,0.004-0.002c0,0,0.001-0.001,0.002-0.002c0.001,0,0.003-0.001,0.004-0.002
		s0.002-0.002,0.004-0.002c0.001-0.001,0.002-0.002,0.004-0.003c0.001-0.001,0.001-0.001,0.002-0.002s0.003-0.001,0.004-0.002
		s0.001-0.001,0.002-0.002c0.002-0.001,0.003-0.002,0.005-0.003c0,0,0,0,0.001-0.001c0.002-0.001,0.004-0.002,0.006-0.003
		c0.001-0.001,0.002-0.002,0.003-0.002c0.001-0.001,0.002-0.002,0.003-0.002c0.001-0.001,0.002-0.002,0.002-0.002
		c0.002-0.001,0.003-0.002,0.004-0.002c0.001-0.001,0.002-0.002,0.003-0.002c0.001-0.001,0.003-0.002,0.004-0.003
		s0.002-0.001,0.003-0.002s0.003-0.002,0.004-0.003s0.001-0.001,0.003-0.001c0.001-0.001,0.002-0.002,0.003-0.003
		s0.002-0.001,0.003-0.001c0.001-0.001,0.002-0.002,0.004-0.003c0-0.001,0.001-0.001,0.002-0.002
		c0.002-0.001,0.003-0.002,0.005-0.003c0.001-0.001,0.002-0.001,0.003-0.002s0.002-0.001,0.003-0.002s0.002-0.002,0.003-0.002
		c0.001-0.001,0.002-0.001,0.003-0.002s0.002-0.001,0.003-0.002c0.002-0.001,0.003-0.002,0.004-0.003s0.002-0.001,0.004-0.002
		c0.001-0.001,0.002-0.002,0.004-0.003c0,0,0.001-0.001,0.002-0.001c0.001-0.001,0.002-0.002,0.003-0.002
		c0.001-0.001,0.002-0.002,0.003-0.002c0.002-0.001,0.003-0.002,0.004-0.003c0.001,0,0.002-0.001,0.002-0.001
		c0.002-0.001,0.004-0.003,0.006-0.004c0.001-0.001,0.001-0.001,0.002-0.002c0.001,0,0.003-0.001,0.004-0.002
		s0.001-0.001,0.002-0.002s0.003-0.001,0.004-0.002s0.001-0.001,0.002-0.002c0.002-0.001,0.004-0.002,0.006-0.004
		c0,0,0.001,0,0.001-0.001c0.002-0.001,0.003-0.002,0.005-0.003c0.001,0,0.001-0.001,0.002-0.001
		c0.002-0.001,0.003-0.002,0.004-0.003c0.001,0,0.002-0.001,0.002-0.001c0.002-0.002,0.004-0.003,0.006-0.004l0,0
		c0.002-0.002,0.004-0.003,0.006-0.004c0.001-0.001,0.001-0.001,0.002-0.001c0.001-0.001,0.003-0.002,0.004-0.003
		s0.001-0.001,0.002-0.002c0.002-0.001,0.004-0.002,0.006-0.003v-0.001c0.002-0.001,0.004-0.002,0.006-0.004
		c0.001,0,0.001-0.001,0.002-0.001c0.001-0.001,0.003-0.002,0.004-0.003c0.001,0,0.002-0.001,0.002-0.001
		c0.002-0.001,0.003-0.002,0.004-0.003c0.001,0,0.002-0.001,0.002-0.001c0.002-0.002,0.004-0.003,0.006-0.004l0.001-0.001
		c0.002-0.001,0.003-0.002,0.005-0.003c0-0.001,0.002-0.002,0.002-0.002c0.002-0.001,0.003-0.002,0.004-0.003
		c0.001,0,0.002-0.001,0.002-0.001c0.002-0.001,0.003-0.002,0.005-0.003l0.001-0.001c0.002-0.001,0.004-0.003,0.006-0.004
		c0.001-0.001,0.001-0.001,0.002-0.001c0.001-0.001,0.003-0.002,0.004-0.003s0.002-0.001,0.002-0.002
		c0.002,0,0.003-0.001,0.004-0.002s0.002-0.001,0.002-0.002c0.002-0.001,0.004-0.002,0.006-0.004c0.001,0,0.001,0,0.001,0
		c0.002-0.001,0.004-0.003,0.005-0.004c0.001,0,0.001-0.001,0.002-0.001c0.001-0.001,0.003-0.002,0.004-0.003
		c0.001,0,0.002-0.001,0.002-0.001c0.002-0.001,0.004-0.003,0.006-0.004l0,0c0.002-0.002,0.004-0.003,0.006-0.004
		c0.001-0.001,0.001-0.001,0.002-0.002s0.003-0.002,0.004-0.003c0.001,0,0.001,0,0.002-0.001s0.003-0.002,0.004-0.003
		c0.001,0,0.001-0.001,0.002-0.001c0.002-0.001,0.004-0.003,0.006-0.004c0,0,0.001-0.001,0.002-0.001
		c0.001-0.001,0.002-0.002,0.004-0.003c0.001-0.001,0.001-0.001,0.002-0.002s0.003-0.002,0.004-0.003c0.001,0,0.002,0,0.002-0.001
		c0.002-0.001,0.003-0.002,0.005-0.003c0.001-0.001,0.001-0.001,0.002-0.001c0.001-0.002,0.003-0.003,0.005-0.004l0.002-0.001
		c0.001-0.001,0.002-0.002,0.004-0.003c0.001-0.001,0.001-0.001,0.002-0.002c0.002-0.001,0.003-0.002,0.004-0.003
		c0.001,0,0.002,0,0.002-0.001c0.002-0.001,0.004-0.002,0.006-0.004c0.001,0,0.001,0,0.001-0.001
		c0.002-0.001,0.003-0.002,0.005-0.003c0.001,0,0.001-0.001,0.002-0.001c0.001-0.001,0.003-0.002,0.004-0.003
		c0,0,0.001-0.001,0.002-0.001c0.002-0.002,0.004-0.003,0.006-0.005c0,0,0,0,0.001,0c0.001-0.001,0.003-0.002,0.004-0.004
		c0.001,0,0.002-0.001,0.003-0.001c0.001-0.001,0.002-0.002,0.004-0.003c0,0,0.001-0.001,0.002-0.001
		c0.001-0.001,0.003-0.002,0.004-0.003s0.001-0.001,0.002-0.001c0.001-0.002,0.003-0.003,0.005-0.004
		c0.001-0.001,0.002-0.002,0.003-0.002c0.001-0.001,0.002-0.002,0.003-0.002c0.001-0.001,0.002-0.002,0.003-0.002
		c0.001-0.001,0.002-0.002,0.003-0.003c0.001,0,0.002-0.001,0.003-0.001c0.001-0.002,0.003-0.003,0.005-0.004
		c0.001-0.001,0.001-0.001,0.002-0.002c0.002-0.001,0.003-0.001,0.004-0.002s0.002-0.001,0.002-0.002
		c0.002-0.001,0.003-0.002,0.004-0.003c0.001,0,0.002-0.001,0.002-0.001c0.002-0.001,0.004-0.003,0.006-0.004l0,0
		c0.002-0.002,0.004-0.003,0.006-0.004c0.001-0.001,0.001-0.001,0.002-0.002s0.003-0.002,0.004-0.003c0.001,0,0.001,0,0.002-0.001
		s0.002-0.002,0.004-0.003c0.001,0,0.001-0.001,0.002-0.001c0.002-0.002,0.004-0.003,0.006-0.004c0-0.001,0.001-0.001,0.002-0.002
		s0.002-0.002,0.004-0.002c0-0.001,0.001-0.001,0.002-0.002s0.003-0.002,0.004-0.003c0,0,0.001-0.001,0.002-0.001
		c0.002-0.001,0.004-0.003,0.006-0.004v-0.001c0.002-0.001,0.004-0.002,0.006-0.004c0,0,0.001,0,0.001-0.001
		c0.002-0.001,0.003-0.002,0.005-0.003l0.001-0.001c0.002-0.001,0.004-0.002,0.005-0.004c0.001,0,0.001,0,0.001,0
		c0.002-0.002,0.004-0.003,0.006-0.004c0.001-0.001,0.001-0.001,0.001-0.001c0.002-0.002,0.004-0.003,0.005-0.004
		c0.001,0,0.001-0.001,0.002-0.001c0.001-0.001,0.003-0.002,0.005-0.003c0-0.001,0-0.001,0.001-0.001
		c0.002-0.002,0.004-0.003,0.006-0.005l0,0c0.002-0.001,0.004-0.002,0.006-0.004c0,0,0.001-0.001,0.002-0.001
		c0.001-0.001,0.003-0.002,0.004-0.003c0,0,0.001-0.001,0.002-0.001c0.001-0.002,0.003-0.003,0.005-0.004c0,0,0,0,0-0.001
		c0.003-0.001,0.005-0.002,0.007-0.004c0,0,0,0,0.001-0.001s0.003-0.002,0.004-0.003s0.001-0.001,0.002-0.001
		c0.002-0.002,0.003-0.003,0.005-0.004l0.001-0.001c0.002-0.001,0.004-0.002,0.006-0.004c0.001,0,0,0,0.001,0
		c0.001-0.002,0.003-0.003,0.005-0.004c0.001,0,0.001-0.001,0.002-0.001c0.001-0.001,0.003-0.002,0.004-0.004
		c0.001,0,0.001,0,0.002-0.001c0.004-0.003,0.008-0.005,0.012-0.008c0-0.001,0.001-0.001,0.001-0.001
		c0.002-0.001,0.003-0.003,0.005-0.003c0-0.001,0.001-0.001,0.001-0.002c0.002-0.001,0.003-0.002,0.005-0.003
		c0.001-0.001,0.001-0.001,0.001-0.001c0.002-0.002,0.004-0.003,0.006-0.004c0.001-0.001,0.001-0.001,0.002-0.001
		c0.001-0.001,0.003-0.003,0.004-0.004c0.001,0,0.001,0,0.002-0.001s0.003-0.002,0.005-0.003c0-0.001,0-0.001,0.001-0.001
		c0.004-0.003,0.008-0.006,0.012-0.009l0.001-0.001c0.002-0.001,0.003-0.002,0.005-0.003c0-0.001,0.001-0.001,0.001-0.001
		c0.002-0.002,0.004-0.003,0.006-0.004c0-0.001,0,0,0-0.001c0.002-0.001,0.004-0.003,0.006-0.004l0.001-0.001
		c0.002-0.001,0.004-0.002,0.005-0.004h0.001c0.002-0.002,0.004-0.003,0.006-0.004l0.001-0.001c0.004-0.003,0.008-0.006,0.012-0.009
		c0,0,0.001,0,0.001-0.001c0.002-0.001,0.003-0.002,0.005-0.003l0.001-0.001c0.004-0.003,0.008-0.006,0.012-0.009
		c0.001,0,0.001,0,0.001-0.001c0.002-0.001,0.003-0.002,0.005-0.003c0.001-0.001,0.001-0.001,0.002-0.002s0.003-0.002,0.004-0.003
		c0.001,0,0.001,0,0.002-0.001c0.002-0.001,0.004-0.003,0.006-0.004c0,0,0,0,0-0.001c0.002-0.001,0.004-0.002,0.006-0.004
		c0,0,0.001,0,0.001-0.001c0.002-0.001,0.003-0.002,0.005-0.003l0.001-0.001c0.004-0.003,0.008-0.006,0.012-0.009
		c0,0,0.001,0,0.001-0.001c0.002-0.001,0.003-0.002,0.005-0.003c0-0.001,0.001-0.001,0.001-0.001
		c0.002-0.002,0.004-0.003,0.005-0.004c0.001,0,0.001,0,0.001-0.001c0.002-0.001,0.004-0.003,0.006-0.004l0.001-0.001
		c0.002-0.001,0.003-0.002,0.005-0.003c0.001-0.001,0.001-0.001,0.002-0.002s0.003-0.002,0.005-0.003c0-0.001,0-0.001,0.001-0.001
		c0.004-0.003,0.008-0.006,0.012-0.009c0,0,0,0,0.001-0.001s0.003-0.002,0.005-0.003c0-0.001,0.001-0.001,0.001-0.002
		c0.002-0.001,0.004-0.002,0.006-0.004l0,0c0.002-0.001,0.004-0.003,0.006-0.004c0.001-0.001,0-0.001,0.001-0.001
		c0.002-0.001,0.003-0.003,0.005-0.004c0.001,0,0,0,0.001-0.001c0.002-0.001,0.004-0.003,0.006-0.004l0,0
		c0.004-0.003,0.008-0.006,0.012-0.009c0.001-0.001,0.001-0.001,0.001-0.001c0.002-0.001,0.004-0.003,0.006-0.004c0,0,0,0,0-0.001
		c0.004-0.003,0.008-0.006,0.013-0.009l0,0c0.002-0.002,0.004-0.003,0.006-0.004c0-0.001,0-0.001,0.001-0.001
		c0.006-0.005,0.012-0.009,0.018-0.014c0,0,0,0,0.001,0c0.001-0.002,0.003-0.003,0.005-0.004c0-0.001,0-0.001,0.001-0.001
		c0.004-0.003,0.008-0.006,0.012-0.009c0-0.001,0,0,0.001-0.001s0.003-0.002,0.005-0.004c0.001,0,0.001,0,0.001-0.001
		c0.002-0.001,0.004-0.002,0.006-0.004l0,0c0.004-0.003,0.008-0.006,0.012-0.009l0.001-0.001c0.002-0.001,0.004-0.003,0.006-0.004
		l0,0c0.004-0.004,0.008-0.007,0.013-0.01l0,0c0.002-0.002,0.004-0.003,0.006-0.005l0,0c0.004-0.003,0.008-0.006,0.012-0.009
		l0.001-0.001c0.002-0.001,0.004-0.003,0.006-0.004v-0.001c0.006-0.004,0.012-0.009,0.019-0.014c0,0-0.001,0,0,0
		c0.002-0.002,0.004-0.003,0.006-0.005l0,0c0.004-0.003,0.008-0.006,0.013-0.009v-0.001c0.002-0.001,0.003-0.002,0.005-0.004
		c0.001,0,0.001,0,0.001-0.001c0.005-0.003,0.008-0.006,0.013-0.009l0,0c0.002-0.002,0.004-0.003,0.005-0.005
		c0.001,0,0.001,0,0.001,0c0.002-0.002,0.004-0.003,0.006-0.004v-0.001c0.004-0.003,0.008-0.006,0.013-0.009v-0.001
		c0.008-0.006,0.016-0.012,0.024-0.019l0,0c0.008-0.007,0.016-0.013,0.024-0.019v-0.001c0.004-0.003,0.008-0.006,0.012-0.009h0.001
		c0.016-0.014,0.032-0.025,0.048-0.038l0.001-0.001c0.012-0.01,0.023-0.019,0.036-0.028l0,0c0.522-0.415,1.019-0.862,1.485-1.338
		L25.998,25.8L25.998,25.8z M29.946,17.232c-0.202,2.329-0.996,4.587-2.294,6.531l1.663,1.111c0.188-0.283,0.369-0.573,0.54-0.868
		c0.001,0,0.001-0.001,0.001-0.001c0.004-0.007,0.008-0.014,0.011-0.02c0.001-0.001,0.001-0.001,0.001-0.002
		c0.001-0.002,0.002-0.002,0.003-0.004c0,0,0-0.001,0.001-0.002s0.001-0.002,0.002-0.004c0,0,0,0,0.001,0
		c0.001-0.003,0.003-0.006,0.004-0.009c0.001,0,0.001-0.001,0.002-0.002c0-0.001,0.001-0.002,0.002-0.004
		c0,0,0.001-0.001,0.001-0.002c0.001-0.001,0.002-0.003,0.002-0.003c0.001-0.001,0.001-0.002,0.002-0.003
		c0-0.001,0.001-0.003,0.002-0.004c0.001-0.002,0.002-0.003,0.003-0.005c0.001-0.001,0.001-0.002,0.002-0.003
		c0-0.001,0.001-0.002,0.001-0.003c0.001-0.001,0.001-0.002,0.002-0.004c0.001-0.001,0.001-0.001,0.002-0.002
		c0-0.001,0.001-0.002,0.002-0.004c0-0.001,0.001-0.002,0.001-0.003c0.001,0,0.001-0.002,0.002-0.003s0.002-0.003,0.003-0.005
		c0.001-0.001,0.001-0.002,0.002-0.003c0-0.001,0.001-0.002,0.002-0.003c0-0.001,0.001-0.003,0.002-0.003
		c0-0.001,0.001-0.003,0.001-0.004c0.001-0.001,0.001-0.001,0.002-0.002c0.001-0.002,0.002-0.003,0.003-0.005
		c0-0.001,0.001-0.002,0.001-0.003c0.001-0.002,0.002-0.003,0.003-0.004c0-0.002,0.001-0.002,0.001-0.003
		c0.001-0.001,0.002-0.002,0.002-0.003c0.001-0.001,0.001-0.002,0.002-0.003c0.001-0.002,0.001-0.003,0.002-0.004
		s0.001-0.002,0.001-0.003c0.001-0.002,0.003-0.004,0.004-0.006c0,0,0-0.001,0.001-0.001c0.001-0.002,0.001-0.003,0.002-0.005
		l0.001-0.002c0.001-0.001,0.002-0.003,0.003-0.004c0-0.001,0.001-0.002,0.001-0.003c0.001-0.001,0.002-0.003,0.003-0.005
		c0,0,0,0,0.001-0.001c0.001-0.002,0.002-0.003,0.003-0.006c0-0.001,0.001-0.001,0.001-0.002c0.001-0.001,0.002-0.003,0.003-0.004
		c0-0.001,0-0.001,0.001-0.002c0.001-0.002,0.001-0.003,0.002-0.004s0.001-0.002,0.002-0.003c0.002-0.004,0.004-0.008,0.006-0.012
		c0.001-0.001,0.001-0.001,0.001-0.002c0.001-0.001,0.002-0.003,0.003-0.005l0.001-0.001c0.001-0.002,0.002-0.004,0.003-0.006
		l0.001-0.001c0.002-0.004,0.004-0.008,0.007-0.013c0,0,0,0,0.001-0.001c0.001-0.002,0.002-0.004,0.003-0.005
		c0-0.001,0-0.001,0-0.002c0.003-0.004,0.005-0.008,0.008-0.013l0,0c0.001-0.002,0.002-0.004,0.003-0.006
		c0-0.001,0.001-0.001,0.001-0.001c0.001-0.002,0.002-0.004,0.003-0.006v-0.001c0.003-0.004,0.005-0.009,0.008-0.013l0,0
		c0.001-0.003,0.002-0.004,0.003-0.007l0.001-0.001c0.001-0.002,0.002-0.004,0.003-0.006h0.001c0.002-0.005,0.005-0.009,0.007-0.014
		l0,0c0.001-0.002,0.003-0.004,0.004-0.007c0,0,0,0.001,0,0c0.009-0.016,0.018-0.031,0.025-0.047l0,0
		c1.031-1.887,1.693-4.004,1.89-6.255L29.946,17.232L29.946,17.232z M29.212,6.972l-1.65,1.13c1.321,1.93,2.141,4.179,2.37,6.504
		l1.99-0.196c-0.047-0.478-0.115-0.95-0.203-1.414c0,0,0,0,0-0.001c-0.002-0.008-0.003-0.015-0.005-0.023c0,0,0,0,0-0.001
		c-0.001-0.002-0.001-0.003-0.001-0.005c0,0,0,0,0-0.001c-0.002-0.008-0.004-0.016-0.005-0.023c0,0,0,0,0,0
		c-0.001-0.002-0.001-0.004-0.001-0.006v0c-0.002-0.008-0.004-0.016-0.005-0.024c0,0,0,0,0-0.001
		c-0.002-0.008-0.004-0.016-0.005-0.023c0,0,0,0,0,0c-0.001-0.002-0.001-0.004-0.001-0.006c0,0,0,0-0.001,0
		c0-0.002,0-0.004-0.001-0.006l0,0c-0.001-0.006-0.002-0.011-0.003-0.018c0,0,0-0.001-0.001-0.001c0-0.002,0-0.003-0.001-0.005
		c0,0,0-0.001,0-0.001c-0.001-0.005-0.002-0.011-0.003-0.017c0,0,0,0,0-0.001c-0.001-0.001-0.001-0.003-0.002-0.005
		c0-0.001,0-0.001,0-0.002c0-0.001-0.001-0.003-0.001-0.005c0,0,0-0.001,0-0.001c-0.001-0.005-0.002-0.011-0.004-0.016
		c0,0,0-0.001,0-0.001c0-0.001-0.001-0.003-0.001-0.005c0,0,0-0.001,0-0.002c-0.001-0.002-0.001-0.003-0.001-0.004
		c0-0.001-0.001-0.002-0.001-0.002c0-0.003-0.001-0.005-0.001-0.008c-0.001,0-0.001-0.001-0.001-0.002
		c0-0.001-0.001-0.003-0.001-0.004c0,0,0-0.001,0-0.002c-0.001-0.001-0.001-0.003-0.001-0.005c0,0-0.001-0.001-0.001-0.002
		c-0.001-0.005-0.002-0.011-0.003-0.016c0,0,0-0.001,0-0.001c-0.001-0.001-0.001-0.003-0.001-0.005c0,0-0.001-0.001-0.001-0.002
		c0-0.001,0-0.003-0.001-0.005c0,0,0-0.001,0-0.001c-0.001-0.005-0.002-0.011-0.003-0.016c-0.001-0.001-0.001-0.001-0.001-0.002
		c0-0.002,0-0.003-0.001-0.005c0,0,0-0.001,0-0.002c-0.001-0.001-0.001-0.003-0.001-0.005c0,0-0.001-0.001-0.001-0.001
		c0-0.002-0.001-0.005-0.001-0.008c-0.001-0.001-0.001-0.002-0.001-0.003c0-0.001-0.001-0.002-0.001-0.004
		c0-0.001,0-0.002-0.001-0.003c0-0.001,0-0.003,0-0.004c-0.001-0.001-0.001-0.002-0.001-0.003c0-0.001-0.001-0.002-0.001-0.004
		c0-0.001,0-0.002-0.001-0.003c0-0.002-0.001-0.004-0.001-0.007c0-0.001-0.001-0.002-0.001-0.003c0-0.001,0-0.002-0.001-0.004
		c0-0.001,0-0.002,0-0.003c-0.001-0.001-0.001-0.002-0.001-0.004c0,0,0-0.001-0.001-0.002c0-0.004-0.001-0.007-0.002-0.011l0,0
		c0-0.001,0-0.002-0.001-0.004c0-0.001,0-0.002,0-0.002c-0.001-0.001-0.001-0.003-0.001-0.004c0,0-0.001-0.002-0.001-0.002
		c0-0.002,0-0.003-0.001-0.004c0,0,0-0.001,0-0.002c-0.001-0.002-0.001-0.005-0.002-0.007c0-0.001,0-0.002-0.001-0.003
		c0-0.002,0-0.002,0-0.004c-0.001-0.001-0.001-0.002-0.001-0.003c0-0.001-0.001-0.002-0.001-0.003c0-0.001-0.001-0.002-0.001-0.003
		s0-0.002-0.001-0.003c0-0.002-0.001-0.004-0.001-0.006c0-0.001,0-0.002-0.001-0.003c0-0.001,0-0.002-0.001-0.004
		c0-0.001,0-0.002,0-0.003c-0.001-0.001-0.001-0.003-0.001-0.004c0-0.001-0.001-0.002-0.001-0.003c0-0.002-0.001-0.003-0.001-0.005
		c0,0,0-0.001,0-0.002c-0.001-0.002-0.001-0.004-0.002-0.006c0-0.001,0-0.002,0-0.003c-0.001-0.001-0.001-0.003-0.001-0.004
		c-0.001-0.001-0.001-0.001-0.001-0.002c0-0.001-0.001-0.003-0.001-0.005c0,0-0.001-0.002-0.001-0.002c0-0.001,0-0.003-0.001-0.005
		c0-0.001-0.001-0.003-0.001-0.005c0-0.001,0-0.002-0.001-0.004c0-0.001,0-0.002-0.001-0.003c0-0.001,0-0.002,0-0.003
		c-0.001-0.001-0.001-0.002-0.001-0.003s-0.001-0.003-0.001-0.004c0-0.001,0-0.001-0.001-0.002c0-0.002-0.001-0.004-0.001-0.007
		c0-0.001,0-0.001-0.001-0.002c0-0.001,0-0.003-0.001-0.005c0,0,0-0.002,0-0.002c-0.001-0.002-0.001-0.003-0.002-0.005
		c0,0,0-0.002,0-0.002c0-0.002-0.001-0.004-0.001-0.006c0,0-0.001,0-0.001-0.001c0-0.002-0.001-0.004-0.001-0.007
		c-0.001-0.001-0.001-0.001-0.001-0.002c0-0.001-0.001-0.003-0.001-0.005c0-0.001,0-0.001-0.001-0.002c0-0.002,0-0.003-0.001-0.005
		c0,0,0-0.001,0-0.002c-0.001-0.002-0.001-0.004-0.002-0.007l0,0c0-0.002-0.001-0.005-0.001-0.007c-0.001,0-0.001-0.001-0.001-0.002
		c0-0.001-0.001-0.003-0.001-0.005c0-0.001,0-0.001-0.001-0.002c0-0.001,0-0.003-0.001-0.005c0-0.001,0-0.001,0-0.002
		c-0.001-0.002-0.001-0.005-0.002-0.007c0,0,0,0,0-0.001c-0.001-0.002-0.001-0.004-0.002-0.006c0-0.001,0-0.001,0-0.002
		c-0.001-0.001-0.001-0.003-0.001-0.005c0,0-0.001-0.002-0.001-0.002c-0.001-0.004-0.002-0.009-0.003-0.014v0
		c-0.001-0.002-0.001-0.004-0.002-0.007c0,0,0-0.001,0-0.001c-0.001-0.002-0.001-0.004-0.002-0.006c0,0,0,0,0-0.001
		c-0.001-0.004-0.002-0.01-0.003-0.015c-0.001,0-0.001,0-0.001-0.001c0-0.002-0.001-0.004-0.001-0.006c0,0,0-0.001-0.001-0.001
		c0-0.002-0.001-0.004-0.001-0.006c0,0,0,0,0-0.001c-0.001-0.002-0.002-0.005-0.002-0.008l0,0c-0.001-0.002-0.001-0.004-0.002-0.007
		c0,0,0-0.001,0-0.001c-0.001-0.002-0.001-0.004-0.002-0.006c0,0,0,0,0-0.001c-0.002-0.007-0.003-0.015-0.005-0.022l-0.001-0.001
		c0-0.002-0.001-0.004-0.001-0.007v0c-0.002-0.005-0.003-0.01-0.004-0.015c0,0,0,0,0-0.001c-0.001-0.002-0.001-0.004-0.002-0.006
		c0,0,0-0.001,0-0.002c-0.001-0.002-0.001-0.004-0.002-0.007l0,0c-0.001-0.005-0.002-0.01-0.004-0.015c0,0,0,0,0,0
		c0-0.002-0.001-0.005-0.001-0.007c0,0,0,0-0.001-0.001c-0.001-0.005-0.002-0.01-0.003-0.015v0
		c-0.001-0.002-0.002-0.005-0.002-0.007v-0.001c-0.002-0.007-0.004-0.015-0.006-0.022l0,0c-0.001-0.003-0.001-0.005-0.002-0.008l0,0
		c-0.002-0.007-0.004-0.015-0.006-0.022c0,0,0,0,0-0.001c0-0.002-0.001-0.005-0.002-0.007v0c-0.002-0.007-0.003-0.015-0.005-0.022v0
		C31.061,10.251,30.268,8.515,29.212,6.972L29.212,6.972z M20.483,0.637l-0.56,1.92c2.238,0.652,4.299,1.872,5.961,3.528
		l1.412-1.416C25.424,2.802,23.091,1.396,20.483,0.637L20.483,0.637z M16,0v2c0.451,0,0.905,0.021,1.351,0.064l0.19-1.991
		c-0.254-0.024-0.509-0.042-0.766-0.055l0,0c-0.004,0-0.008,0-0.012,0l0,0c-0.004,0-0.008,0-0.012-0.001h0c-0.004,0-0.008,0-0.012,0
		l0,0c-0.012,0-0.024-0.001-0.036-0.001h-0.001c-0.003,0-0.007,0-0.011,0c0,0,0,0-0.001,0c-0.003,0-0.007,0-0.011,0
		c0,0-0.001,0-0.001,0c-0.003,0-0.007,0-0.011,0h-0.001c-0.004,0-0.008,0-0.011,0c0,0,0,0-0.001,0c-0.004,0-0.007,0-0.011,0h-0.001
		c-0.004,0-0.007,0-0.011,0c0,0,0,0,0,0c-0.008,0-0.016,0-0.023-0.001c0,0,0,0,0,0c-0.004,0-0.008,0-0.011,0h-0.001
		c-0.004,0-0.007,0-0.011,0c0,0-0.001,0-0.002,0c-0.003,0-0.007,0-0.01,0c0,0-0.001,0-0.002,0c-0.003,0-0.007,0-0.01,0
		c0,0-0.001,0-0.002,0c-0.003,0-0.007,0-0.01,0c0,0-0.001,0-0.002,0c-0.003,0-0.007,0-0.01,0c-0.001,0-0.001,0-0.001,0
		c-0.004,0-0.007,0-0.011,0h0c-0.003,0-0.007,0-0.011,0c0,0,0,0,0,0c-0.004,0-0.007,0-0.011,0c0,0,0,0-0.001,0
		c-0.004,0-0.007,0-0.011,0c0,0-0.001,0-0.002,0c-0.003,0-0.007,0-0.01,0c0,0-0.001,0-0.002,0c-0.003,0-0.007,0-0.01,0
		c-0.001,0-0.001,0-0.002,0c-0.003,0-0.007,0-0.01,0c0,0-0.001,0-0.002,0c-0.003,0-0.007,0-0.01,0c0,0-0.001,0-0.002,0
		c-0.003,0-0.007,0-0.011,0c0,0,0,0-0.001,0c-0.004,0-0.007,0-0.011,0l0,0c-0.004,0-0.008,0-0.011,0c0,0-0.001,0-0.001,0
		c-0.003,0-0.007,0-0.01,0c-0.001,0-0.001,0-0.002,0c-0.003,0-0.007,0-0.01,0c0,0-0.001,0-0.002,0c-0.003,0-0.007,0-0.01,0
		c-0.001,0-0.001,0-0.002,0c-0.003,0-0.007,0-0.01,0c0,0-0.001,0-0.002,0c-0.003,0-0.007,0-0.01,0c0,0-0.002,0-0.002,0
		c-0.003,0-0.007,0-0.01,0c0,0-0.001,0-0.001,0c-0.003,0-0.007,0-0.011,0c0,0,0,0-0.001,0c-0.004,0-0.007,0-0.011,0c0,0,0,0-0.001,0
		c-0.003,0-0.007,0-0.011,0c-0.001,0-0.001,0-0.002,0c-0.003,0-0.007,0-0.01,0c0,0-0.001,0-0.002,0c-0.003,0-0.007,0-0.01,0
		c0,0-0.001,0-0.002,0c-0.003,0-0.007,0-0.01,0c-0.001,0-0.001,0-0.002,0c-0.003,0-0.007,0-0.01,0c0,0-0.001,0-0.002,0
		c-0.003,0-0.007,0-0.01,0c-0.001,0-0.001,0-0.002,0c-0.003,0-0.007,0-0.011,0c0,0,0,0-0.001,0c-0.008,0-0.015,0-0.022,0
		c0,0-0.001,0-0.001,0c-0.003,0-0.007,0-0.011,0c0,0-0.001,0-0.001,0c-0.004,0-0.007,0-0.011,0c0,0-0.001,0-0.002,0
		c-0.003,0-0.007,0-0.01,0c0,0-0.001,0-0.002,0c-0.003,0-0.007,0-0.01,0c0,0-0.001,0-0.002,0c-0.003,0-0.007,0-0.011,0
		c0,0,0,0-0.001,0c-0.004,0-0.007,0-0.011,0c0,0,0,0-0.001,0c-0.004,0-0.008,0-0.011,0h0c-0.004,0-0.008,0-0.011,0c0,0,0,0-0.001,0
		c-0.004,0-0.007,0-0.011,0c0,0,0,0-0.001,0c-0.004,0-0.007,0-0.011,0c0,0-0.001,0-0.002,0c-0.003,0-0.007,0-0.01,0
		c0,0-0.001,0-0.002,0c-0.003,0-0.007,0-0.01,0c-0.001,0-0.001,0-0.002,0c-0.003,0-0.007,0-0.011,0c0,0-0.001,0-0.001,0
		c-0.004,0-0.007,0-0.011,0c0,0-0.001,0-0.001,0c-0.004,0-0.007,0-0.011,0c0,0,0,0,0,0C16.008,0,16.004,0,16,0L16,0L16,0z"/>
</g>
</svg>
